<?xml version="1.0" encoding="UTF-8" standalone="no"?>
<svg
   xmlns:dc="http://purl.org/dc/elements/1.1/"
   xmlns:cc="http://creativecommons.org/ns#"
   xmlns:rdf="http://www.w3.org/1999/02/22-rdf-syntax-ns#"
   xmlns:svg="http://www.w3.org/2000/svg"
   xmlns="http://www.w3.org/2000/svg"
   xmlns:sodipodi="http://sodipodi.sourceforge.net/DTD/sodipodi-0.dtd"
   xmlns:inkscape="http://www.inkscape.org/namespaces/inkscape"
   version="1.1"
   width="45"
   height="45"
   id="svg2"
   inkscape:version="0.48.2 r9819"
   sodipodi:docname="black-rook.svg">
  <metadata
     id="metadata34">
    <rdf:RDF>
      <cc:Work
         rdf:about="">
        <dc:format>image/svg+xml</dc:format>
        <dc:type
           rdf:resource="http://purl.org/dc/dcmitype/StillImage" />
      </cc:Work>
    </rdf:RDF>
  </metadata>
  <defs
     id="defs32" />
  <sodipodi:namedview
     pagecolor="#ffffff"
     bordercolor="#666666"
     borderopacity="1"
     objecttolerance="10"
     gridtolerance="10"
     guidetolerance="10"
     inkscape:pageopacity="0"
     inkscape:pageshadow="2"
     inkscape:window-width="1680"
     inkscape:window-height="1028"
     id="namedview30"
     showgrid="false"
     inkscape:zoom="4"
     inkscape:cx="116.42713"
     inkscape:cy="-43.89254"
     inkscape:window-x="-8"
     inkscape:window-y="-8"
     inkscape:window-maximized="1"
     inkscape:current-layer="g3004" />
  <g
     style="opacity:1; fill:000000; fill-opacity:1; fill-rule:evenodd; stroke:#000000; stroke-width:1.5; stroke-linecap:round;stroke-linejoin:round;stroke-miterlimit:4; stroke-dasharray:none; stroke-opacity:1;"
     id="g4">
    <g
       id="g3004">
      <path
         style="fill:#c8c8c8;stroke-width:0.05902965"
         d="m 9.5647183,40.718859 c -0.1262936,-0.02475 -0.3880644,-0.26556 -0.4717199,-0.433928 -0.067776,-0.136437 -0.074986,-0.274903 -0.086391,-1.657466 -0.0076,-0.997309 0.00257,-1.577484 0.031037,-1.71186 0.057762,-0.27044 0.2004242,-0.477196 0.404444,-0.586183 0.16137,-0.0862 0.2080116,-0.08975 1.3363446,-0.101314 l 1.169137,-0.01204 0.01145,-1.640844 c 0.01145,-1.640397 0.01145,-1.640897 0.105649,-1.832237 0.107671,-0.218608 0.346048,-0.39397 0.58835,-0.432716 0.150615,-0.02408 0.156631,-0.03217 0.708663,-0.952759 l 0.556757,-0.928471 -6.85e-4,-6.106363 -6.71e-4,-6.106362 -1.371953,-1.135874 c -0.981684,-0.812769 -1.398479,-1.182178 -1.465223,-1.298653 l -0.09324,-0.162778 0,-2.637682 0,-2.637684 0.100578,-0.195381 c 0.06088,-0.118288 0.166927,-0.2421013 0.268913,-0.3137997 l 0.168449,-0.1184148 2.11188,-0.012287 c 2.245813,-0.013048 2.310746,-0.00861 2.554972,0.175794 0.256832,0.1938845 0.300496,0.3460955 0.317179,1.1056095 l 0.01495,0.678841 1.648938,0 1.648937,0 2.41e-4,-0.619811 c 1.14e-4,-0.340897 0.01988,-0.690589 0.04383,-0.777095 0.057,-0.205328 0.32132,-0.4696442 0.526647,-0.5266461 0.227694,-0.063211 5.1918,-0.061335 5.37554,0.00202 0.187427,0.064642 0.340664,0.185073 0.441268,0.3468151 0.07778,0.125065 0.08791,0.206201 0.105649,0.846672 l 0.01964,0.708356 1.652828,0 1.652826,0 0.01963,-0.711837 c 0.01926,-0.698613 0.02165,-0.714751 0.128447,-0.868664 0.0598,-0.086252 0.183779,-0.1997959 0.275465,-0.2523137 l 0.166714,-0.095487 2.0963,-0.011148 c 1.472419,-0.00785 2.145651,0.00215 2.262127,0.033493 0.219274,0.059042 0.479208,0.3186747 0.538137,0.5374997 0.03142,0.116704 0.04117,0.928022 0.03344,2.773717 l -0.01145,2.608758 -0.09095,0.146353 c -0.05346,0.08592 -0.658844,0.619547 -1.466261,1.292385 l -1.375272,1.146032 0.01017,6.105998 0.01017,6.105998 0.550942,0.902858 0.550943,0.902857 0.21304,0.05829 c 0.267498,0.07317 0.526976,0.309399 0.589375,0.536537 0.02813,0.102366 0.04333,0.718164 0.04345,1.761054 l 2.28e-4,1.603637 1.114565,0 c 1.287005,0 1.391346,0.01844 1.620778,0.286485 0.07574,0.08851 0.15529,0.224071 0.176735,0.30124 0.05764,0.207447 0.0518,3.220832 -0.0063,3.390904 -0.07043,0.205461 -0.218917,0.377388 -0.40257,0.46629 l -0.166702,0.08069 -13.436491,-0.0053 C 15.69447,40.737765 9.6102649,40.727902 9.5640803,40.718857 z M 33.532131,36.913258 c 0.175254,-0.07322 0.259682,-0.2035 0.259682,-0.400696 0,-0.181836 -0.12262,-0.351317 -0.281962,-0.389913 -0.05054,-0.01229 -4.781785,-0.01738 -10.513861,-0.01145 l -10.421959,0.01075 -0.114892,0.128518 c -0.190644,0.213373 -0.122747,0.548434 0.133665,0.659975 0.18853,0.08198 20.743147,0.08466 20.939264,0.0028 z m -0.880319,-3.97882 c 0.280291,-0.250086 0.179712,-0.685297 -0.172909,-0.748121 -0.06789,-0.01216 -4.341326,-0.01697 -9.49648,-0.01075 l -9.372985,0.0111 -0.111094,0.08248 c -0.132373,0.09826 -0.201741,0.323428 -0.14731,0.478187 0.02052,0.05824 0.09741,0.146439 0.170909,0.195984 l 0.133678,0.09008 9.453994,-0.01017 c 9.3911,-0.01017 9.45459,-0.01063 9.542209,-0.08884 z m -1.043247,-1.931341 c 0.330301,-0.156739 0.301295,-0.634506 -0.04662,-0.766756 -0.05941,-0.0226 -3.35066,-0.03694 -8.478073,-0.03694 -9.045634,0 -8.558813,-0.01122 -8.707745,0.201365 -0.07322,0.104468 -0.08411,0.317431 -0.0223,0.432976 0.02304,0.04303 0.0983,0.112625 0.167246,0.15468 0.123127,0.07507 0.277454,0.07646 8.541005,0.0766 7.582466,1.17e-4 8.42857,-0.006 8.546426,-0.06192 z m 0.05358,-12.791861 c 0.221047,-0.154833 0.230345,-0.514411 0.01761,-0.681746 l -0.102353,-0.0805 -8.479048,0 c -7.840296,0 -8.48741,0.005 -8.58999,0.06552 -0.261188,0.154288 -0.258465,0.560079 0.005,0.705964 0.07728,0.0428 1.611075,0.05239 8.575725,0.05352 7.779101,0.0012 8.489272,-0.0039 8.573307,-0.06279 z m 2.895484,-2.436646 c 0.244342,-0.115944 0.29548,-0.441417 0.103113,-0.656648 l -0.114764,-0.128517 -11.396737,-0.01005 c -12.602242,-0.0111 -11.605053,-0.0318 -11.736326,0.243501 -0.09374,0.196618 -0.0385,0.402574 0.140367,0.522762 l 0.133731,0.08987 11.371111,0 c 10.183456,0 11.384527,-0.0063 11.499509,-0.06093 z"
         id="path3018"
         inkscape:connector-curvature="0" />
      <path
         style="fill:#b0b0b0;stroke-width:0.05902965"
         d="M 9.5711406,40.683436 C 9.3935698,40.618255 9.219583,40.466609 9.1237419,40.293468 9.0664828,40.19004 9.056854,39.9779 9.0458345,38.58161 c -0.00888,-1.124384 8.951e-4,-1.639114 0.032941,-1.747648 0.059152,-0.200016 0.1806745,-0.361407 0.3528115,-0.468478 0.1322859,-0.08229 0.1905803,-0.08688 1.338586,-0.105707 l 1.200274,-0.01967 0.01963,-1.672507 c 0.0138,-1.169016 0.03383,-1.703974 0.0665,-1.777039 0.110078,-0.245713 0.43448,-0.465033 0.689157,-0.465868 0.04535,-1.58e-4 0.25141,-0.307882 0.639488,-0.955217 l 0.572515,-0.954996 -5.95e-4,-6.079371 c -3.18e-4,-3.343656 -0.01368,-6.098287 -0.02952,-6.121407 -0.01596,-0.02311 -0.631012,-0.542133 -1.366924,-1.153361 -1.125804,-0.935073 -1.355298,-1.143125 -1.447036,-1.311849 l -0.109061,-0.200523 0.01017,-2.620779 c 0.01017,-2.570974 0.01267,-2.623771 0.09285,-2.778193 0.04522,-0.08658 0.157405,-0.2105392 0.249319,-0.2754708 l 0.167095,-0.1180601 2.170911,-0.010645 2.170897,-0.010645 0.176557,0.089406 c 0.103616,0.052455 0.22557,0.1598635 0.295151,0.2599309 l 0.118567,0.170528 0.01963,0.714917 0.01963,0.714916 1.628596,0.01028 c 1.16954,0.0074 1.643743,-0.0023 1.682341,-0.03433 0.0413,-0.03427 0.05396,-0.191646 0.05459,-0.679282 7.23e-4,-0.530488 0.01267,-0.660777 0.07309,-0.793711 0.08754,-0.1928 0.272372,-0.3553719 0.468907,-0.4125333 0.09956,-0.028971 0.976224,-0.038649 2.766175,-0.030567 l 2.620375,0.01178 0.15691,0.1087618 c 0.08626,0.059815 0.19965,0.1837805 0.251879,0.2754705 0.08765,0.153837 0.09652,0.219891 0.115149,0.855391 l 0.02026,0.68868 1.652827,0 1.652827,0 0.02102,-0.669004 c 0.02255,-0.717526 0.05296,-0.84584 0.249155,-1.0546911 0.212951,-0.2266055 0.187907,-0.2243621 2.493078,-0.2234208 1.968283,8.03e-4 2.127627,0.00596 2.27553,0.073103 0.166323,0.075548 0.355307,0.2699419 0.414958,0.4268399 0.01925,0.05062 0.03572,1.271395 0.03648,2.712827 0.0012,2.587037 4.68e-4,2.622996 -0.08145,2.792222 -0.06765,0.139817 -0.33642,0.382618 -1.457116,1.316514 l -1.374119,1.145077 3.9e-5,6.12598 3.7e-5,6.125978 0.54105,0.901063 c 0.297581,0.495582 0.567625,0.914528 0.600091,0.930983 0.03244,0.01645 0.133489,0.04974 0.224505,0.07397 0.205603,0.05474 0.384973,0.202321 0.485577,0.399518 0.07272,0.142497 0.07702,0.240601 0.07702,1.76272 0,0.886505 0.01017,1.639839 0.02394,1.674077 0.02102,0.05476 0.161775,0.06235 1.170744,0.06311 1.276226,0.001 1.354865,0.01451 1.570502,0.270783 0.184081,0.218766 0.191644,0.305622 0.178736,2.053116 l -0.01268,1.636086 -0.108302,0.163541 c -0.05954,0.08994 -0.18351,0.203738 -0.275478,0.252867 l -0.167183,0.08931 -13.399729,0.0072 C 11.474984,40.739946 9.7056047,40.733345 9.5697466,40.683505 z M 33.697366,36.834332 c 0.150006,-0.150017 0.177558,-0.336427 0.07816,-0.52871 -0.124141,-0.240088 0.699581,-0.222936 -10.705252,-0.222936 -9.979195,0 -10.438894,0.0032 -10.542221,0.0708 -0.05941,0.03894 -0.136898,0.131294 -0.172164,0.205239 -0.08931,0.187276 -0.01887,0.424625 0.157912,0.53244 0.123761,0.0755 0.287435,0.07668 10.587775,0.07683 l 10.462024,1.59e-4 0.133806,-0.1338 z m -1.196904,-3.80288 c 0.388788,-0.107975 0.473597,-0.631223 0.132603,-0.81816 -0.111351,-0.06102 -0.809358,-0.06677 -9.42724,-0.0774 -5.11885,-0.0063 -9.385146,-3.54e-4 -9.480658,0.01322 -0.282978,0.04024 -0.48269,0.300105 -0.420633,0.547348 0.03787,0.150772 0.188795,0.300082 0.339106,0.335427 0.208708,0.04908 18.680112,0.04866 18.856822,-4.3e-4 z m -0.846916,-2.021981 c 0.373132,-0.22581 0.226822,-0.763451 -0.225301,-0.827927 -0.09615,-0.01371 -3.920148,-0.01972 -8.497897,-0.01337 -6.785598,0.0093 -8.339922,0.0211 -8.413825,0.06324 -0.118313,0.06749 -0.243517,0.275463 -0.243708,0.404875 -2.27e-4,0.152129 0.159495,0.362861 0.316038,0.416994 0.104632,0.03617 2.095047,0.04534 8.53827,0.03936 8.201075,-0.0076 8.404855,-0.0096 8.526423,-0.08318 z m -0.04965,-12.749582 c 0.07219,-0.03018 0.160217,-0.09611 0.195509,-0.146492 0.08132,-0.116177 0.08284,-0.384107 0.0026,-0.498459 -0.153389,-0.219008 0.428702,-0.205297 -8.716258,-0.205297 -7.795453,0 -8.437802,0.005 -8.566099,0.06581 -0.165093,0.07834 -0.265356,0.28031 -0.229329,0.461979 0.02787,0.140455 0.08094,0.216313 0.217308,0.310268 0.09095,0.06266 0.649735,0.06706 8.531048,0.06706 7.123678,0 8.454144,-0.0084 8.565072,-0.05489 z m 2.864296,-2.425743 c 0.202704,-0.0563 0.346872,-0.238528 0.346872,-0.438468 0,-0.235728 -0.185906,-0.409593 -0.474342,-0.443619 -0.117935,-0.01391 -5.261384,-0.02004 -11.429979,-0.01365 -10.751195,0.0111 -11.221054,0.01461 -11.346625,0.08313 -0.34292,0.187118 -0.281634,0.699312 0.09728,0.812853 0.167044,0.05006 22.626571,0.0498 22.806827,-2.74e-4 z"
         id="path3016"
         inkscape:connector-curvature="0" />
      <path
         style="fill:#898989;stroke-width:0.05902965"
         d="M 9.4782127,40.622235 C 9.378395,40.572828 9.2642228,40.472079 9.202736,40.379164 l -0.1050178,-0.158692 0,-1.737468 0,-1.737467 0.1074133,-0.140768 c 0.059035,-0.07742 0.1741645,-0.182291 0.2557925,-0.233042 0.1458399,-0.09067 0.1690462,-0.09248 1.338853,-0.104714 l 1.19043,-0.01241 0,-1.549915 c 0,-0.989339 0.01583,-1.623759 0.04383,-1.754086 0.05637,-0.263023 0.305727,-0.529119 0.533195,-0.569071 0.0831,-0.01459 0.187515,-0.0493 0.232079,-0.07714 0.04458,-0.02783 0.323487,-0.455872 0.619814,-0.9512 l 0.53877,-0.900596 0,-6.124676 0,-6.124676 -1.378857,-1.149028 c -1.007196,-0.839303 -1.399682,-1.189819 -1.456065,-1.300351 -0.07448,-0.145877 -0.07728,-0.24614 -0.07728,-2.786986 0,-1.766533 0.0138,-2.672195 0.04193,-2.746446 0.05194,-0.137366 0.215334,-0.313244 0.371345,-0.3996064 0.105018,-0.058156 0.346821,-0.066618 2.193509,-0.076828 1.466174,-0.00811 2.124471,0.00178 2.242443,0.033493 0.104503,0.028134 0.227962,0.1060893 0.329807,0.2082365 0.209936,0.2105339 0.251764,0.4015079 0.251764,1.1494539 l 0,0.569106 1.682341,-0.01028 1.682342,-0.01028 0.01963,-0.68868 c 0.01874,-0.656592 0.02459,-0.69695 0.124013,-0.866192 0.06422,-0.109357 0.170061,-0.2151258 0.275465,-0.2754708 l 0.171112,-0.097956 2.557949,-0.012034 c 2.716379,-0.01273 2.754634,-0.010517 3.000724,0.1752734 0.238235,0.1798504 0.263506,0.2734444 0.285268,1.0566634 l 0.01964,0.708356 1.692184,0 1.692184,0 0.01963,-0.711411 c 0.01913,-0.690247 0.02281,-0.716149 0.125281,-0.87076 0.05801,-0.08765 0.173163,-0.2013758 0.255792,-0.2527407 l 0.150223,-0.093396 2.066036,-0.01178 c 1.393792,-0.00798 2.121622,0.00215 2.236869,0.030985 0.224492,0.05618 0.388167,0.1806242 0.492268,0.3743107 0.08373,0.155796 0.08474,0.18389 0.09665,2.735041 0.0076,1.725382 -0.0012,2.62466 -0.02951,2.719873 -0.02281,0.07823 -0.07981,0.191033 -0.126764,0.250659 -0.04687,0.05963 -0.671143,0.595712 -1.387217,1.191297 -0.716061,0.595585 -1.324069,1.110413 -1.351127,1.144059 -0.03889,0.04836 -0.04915,1.337431 -0.04915,6.148132 l 0,6.086955 0.560964,0.937603 0.560974,0.937601 0.21736,0.06453 c 0.289904,0.08606 0.398059,0.16258 0.512698,0.362744 l 0.09602,0.167601 0.01963,1.672507 0.01963,1.672506 1.180587,0.01967 1.180599,0.01967 0.177509,0.104363 c 0.109318,0.06428 0.215129,0.170065 0.275476,0.275472 l 0.09793,0.17111 0.01145,1.588392 c 0.01267,1.743988 0.0011,1.851919 -0.219184,2.063003 -0.254374,0.243654 0.898167,0.224888 -13.810621,0.224854 L 9.6485105,40.706502 9.4780456,40.622121 z M 33.595038,36.938557 c 0.195863,-0.09784 0.300533,-0.32191 0.241857,-0.517731 -0.02407,-0.08035 -0.08981,-0.189298 -0.145977,-0.242113 l -0.102225,-0.09603 -10.466295,-0.01005 c -11.514925,-0.01098 -10.625889,-0.02968 -10.757693,0.225212 -0.126547,0.244582 -0.05421,0.484733 0.190846,0.634163 0.120593,0.07351 0.354712,0.0752 10.51253,0.07527 9.812315,7.9e-5 10.396864,-0.0036 10.526946,-0.06872 z m -0.983825,-3.935312 c 0.0855,-0.04271 0.166259,-0.12724 0.212977,-0.222928 0.06828,-0.139954 0.07018,-0.168776 0.01964,-0.313542 -0.03496,-0.100227 -0.105263,-0.192778 -0.189276,-0.249247 l -0.133716,-0.08983 -9.423136,0 c -8.640039,0 -9.434409,0.0053 -9.558714,0.06434 -0.330049,0.156617 -0.333861,0.652858 -0.0063,0.814308 0.118947,0.0586 0.928557,0.06411 9.53533,0.06487 8.876537,7.88e-4 9.413128,-0.0032 9.543122,-0.06797 z m -0.953801,-1.97731 c 0.07069,-0.04305 0.158366,-0.141123 0.194987,-0.21792 0.05992,-0.125572 0.06081,-0.156183 0.0089,-0.303974 -0.03661,-0.1051 -0.105392,-0.196722 -0.190973,-0.254168 l -0.133716,-0.08983 -8.439312,0 c -7.729469,0 -8.450724,0.0055 -8.574891,0.06433 -0.231825,0.110008 -0.317457,0.399745 -0.190643,0.644976 0.129245,0.249938 -0.546864,0.231871 8.735892,0.23344 8.377925,0.0014 8.462176,6.61e-4 8.589318,-0.07687 z M 31.514308,18.314032 c 0.183411,-0.05095 0.340713,-0.20915 0.371585,-0.37371 0.03244,-0.172662 -0.07626,-0.396653 -0.234297,-0.483224 -0.114261,-0.06258 -0.687876,-0.06792 -8.445771,-0.07864 -4.577749,-0.0063 -8.401803,-3.14e-4 -8.497898,0.01337 -0.258324,0.03677 -0.435251,0.225149 -0.435251,0.463414 0,0.212897 0.134389,0.399658 0.327921,0.455685 0.178015,0.05152 16.728412,0.05457 16.913711,0.0032 z m 3.096452,-2.518878 c 0.07169,-0.04367 0.15682,-0.142988 0.189289,-0.220682 0.08234,-0.197132 0.0076,-0.429984 -0.178193,-0.554619 l -0.13411,-0.08998 -11.448572,0.01017 -11.448562,0.01017 -0.134718,0.146996 c -0.211506,0.230805 -0.175518,0.529874 0.08437,0.701206 0.113373,0.07476 0.313048,0.07607 11.527807,0.0762 11.377459,1.19e-4 11.412801,-1.18e-4 11.542666,-0.07931 z"
         id="path3014"
         inkscape:connector-curvature="0" />
      <path
         style="fill:#787878;stroke-width:0.05902965"
         d="M 9.5699756,40.647711 C 9.3691974,40.576523 9.173715,40.364837 9.1181305,40.158372 9.08887,40.049884 9.0784815,39.472624 9.0862057,38.390731 L 9.0976577,36.784188 9.210271,36.62175 c 0.2140787,-0.308793 0.2819751,-0.322621 1.584131,-0.322621 0.834679,0 1.153276,-0.01268 1.187846,-0.04722 0.03522,-0.03516 0.04726,-0.45456 0.04737,-1.642991 1.14e-4,-0.943406 0.01634,-1.653738 0.03965,-1.737569 0.07309,-0.26339 0.303117,-0.441462 0.676653,-0.523987 0.08956,-0.01978 0.197775,-0.175778 0.678845,-0.978209 l 0.572325,-0.954676 0,-6.081687 c 0,-4.806487 -0.01017,-6.094514 -0.04915,-6.142863 -0.02711,-0.03363 -0.636256,-0.549472 -1.353787,-1.146277 -0.717533,-0.596805 -1.355044,-1.151251 -1.416708,-1.232104 l -0.112111,-0.147002 0,-2.701625 0,-2.701626 0.108302,-0.163591 c 0.05954,-0.08998 0.178383,-0.1993596 0.264065,-0.2430758 0.150716,-0.076891 0.225593,-0.07945 2.292275,-0.078613 2.430287,9.867e-4 2.361162,-0.0076 2.576596,0.3176548 0.108944,0.164422 0.111223,0.179466 0.130499,0.878696 l 0.01963,0.71141 1.701166,0.01028 1.701165,0.01028 0.02002,-0.08896 c 0.01145,-0.04893 0.0247,-0.384003 0.03039,-0.744608 l 0.01017,-0.655645 0.119073,-0.14695 c 0.25373,-0.313204 0.06144,-0.2954368 3.071461,-0.2837219 l 2.67891,0.010388 0.142571,0.097704 c 0.07841,0.053735 0.183361,0.1688469 0.23322,0.2557949 0.08361,0.145767 0.09171,0.212536 0.103615,0.856607 l 0.01304,0.698518 1.708665,0 1.708676,0 2.42e-4,-0.619813 c 1.14e-4,-0.340894 0.019,-0.687472 0.04193,-0.77017 0.05574,-0.200565 0.285713,-0.4488722 0.46388,-0.5007717 0.09551,-0.027817 0.860139,-0.03775 2.294214,-0.029806 l 2.150945,0.011907 0.148424,0.1201502 c 0.08158,0.066086 0.185096,0.1900475 0.229901,0.2754705 0.07955,0.151547 0.08183,0.215967 0.09412,2.654239 0.0089,1.712831 -9.12e-4,2.560819 -0.03052,2.695687 -0.02672,0.122051 -0.09133,0.251253 -0.170087,0.34025 -0.0698,0.07891 -0.715731,0.632666 -1.435403,1.230553 l -1.308488,1.087069 0,6.127457 0,6.127459 0.560784,0.937172 c 0.452086,0.755527 0.57985,0.941217 0.659159,0.95806 0.410399,0.08714 0.635434,0.282847 0.706549,0.614436 0.0247,0.115196 0.04117,0.812298 0.04117,1.743692 l 0,1.551761 0.08855,0.02012 c 0.04865,0.01098 0.60493,0.02468 1.236056,0.03025 l 1.147501,0.01017 0.147005,0.119048 c 0.300623,0.243438 0.293034,0.190564 0.293034,2.042176 0,1.601508 -0.0026,1.656009 -0.08348,1.823175 -0.05143,0.106292 -0.145687,0.212832 -0.245949,0.278059 l -0.162549,0.10573 -13.419402,0.0082 c -11.498828,0.0071 -13.4419274,3.06e-4 -13.5768098,-0.04753 z M 33.715264,36.866074 c 0.230964,-0.230962 0.185995,-0.601619 -0.09133,-0.753206 -0.120719,-0.06598 -0.660324,-0.06953 -10.562755,-0.06953 l -10.435525,0 -0.111094,0.08125 c -0.06106,0.0447 -0.1437,0.146794 -0.183513,0.226905 -0.06461,0.129915 -0.06676,0.163538 -0.01963,0.311107 0.03522,0.11051 0.09728,0.195312 0.18677,0.25539 l 0.134045,0.08993 10.480697,-0.01005 10.480709,-0.01005 0.121734,-0.121734 z m -1.066263,-3.858262 c 0.311971,-0.184284 0.311971,-0.631465 0,-0.815749 -0.100075,-0.05911 -0.883955,-0.06436 -9.591511,-0.06436 l -9.482558,0 -0.10843,0.08532 c -0.254818,0.200441 -0.259314,0.561289 -0.0089,0.758232 l 0.126952,0.100063 9.478023,4.36e-4 c 8.703844,4e-4 9.486928,-0.0048 9.586989,-0.06393 z m -0.979177,-1.971194 c 0.319307,-0.19859 0.308375,-0.645241 -0.02002,-0.816902 -0.109949,-0.0575 -0.880953,-0.06212 -8.627751,-0.05158 l -8.506942,0.01157 -0.100449,0.09434 c -0.298316,0.280258 -0.16137,0.753579 0.240794,0.832268 0.08158,0.01597 3.911573,0.02653 8.510958,0.02346 l 8.362534,-0.0055 0.140823,-0.08758 z m -0.0617,-12.739165 c 0.158469,-0.06621 0.294454,-0.267224 0.294454,-0.435252 0,-0.168027 -0.135985,-0.369042 -0.294454,-0.435253 -0.11654,-0.0487 -1.308666,-0.05665 -8.494491,-0.05665 -4.597383,0 -8.415281,0.01122 -8.484216,0.02506 -0.165283,0.03307 -0.347441,0.219917 -0.37916,0.388932 -0.03383,0.180313 0.08196,0.401931 0.259922,0.497352 0.130056,0.06975 0.451466,0.07247 8.548732,0.07247 7.233453,0 8.432636,-0.0079 8.549213,-0.05665 z m 3.015317,-2.491799 c 0.279239,-0.173647 0.304879,-0.517353 0.05574,-0.747362 l -0.138534,-0.127898 -11.442493,1.58e-4 c -11.407404,1.58e-4 -11.442886,3.93e-4 -11.572752,0.07957 -0.357346,0.217869 -0.257654,0.766613 0.157203,0.865346 0.0717,0.01706 5.230638,0.02835 11.464167,0.02505 l 11.333692,-0.006 0.142938,-0.08888 z"
         id="path3012"
         inkscape:connector-curvature="0" />
      <path
         style="fill:#515151;stroke-width:0.05902965"
         d="M 9.6824499,40.669136 C 9.4766936,40.62008 9.2772954,40.471824 9.1850523,40.299342 9.0999233,40.140156 9.0973875,40.098027 9.084849,38.620961 9.0709198,36.983073 9.0885883,36.779876 9.2628253,36.572733 9.471774,36.324411 9.4926362,36.320722 10.809651,36.299129 l 1.200273,-0.01967 0.01963,-1.692184 c 0.01748,-1.500228 0.02736,-1.706159 0.08716,-1.815393 0.09602,-0.175456 0.283358,-0.320644 0.475444,-0.368538 0.09095,-0.02269 0.192026,-0.05541 0.22448,-0.0727 0.03244,-0.01728 0.310794,-0.446346 0.618509,-0.953445 l 0.559469,-0.922002 0.0012,-6.128771 0.0012,-6.128768 -1.387195,-1.157433 c -0.762919,-0.636587 -1.422573,-1.216767 -1.465857,-1.28929 -0.07626,-0.12773 -0.07905,-0.212377 -0.08969,-2.70121 -0.0076,-1.71129 0.0026,-2.620799 0.03052,-2.723413 0.05447,-0.202208 0.21437,-0.3875935 0.411639,-0.4772039 0.147766,-0.067124 0.305854,-0.072305 2.229053,-0.073103 1.4427,-6.03e-4 2.110537,0.012681 2.20377,0.043841 0.0736,0.024587 0.184043,0.091002 0.245506,0.1475737 0.220438,0.2029442 0.23997,0.2811172 0.261696,1.0473412 l 0.02015,0.708357 1.667952,0.01028 c 1.13829,0.007 1.684014,-0.003 1.718545,-0.03172 0.03674,-0.03053 0.05409,-0.232924 0.06359,-0.741794 0.0128,-0.688221 0.01482,-0.70237 0.120339,-0.854555 0.05904,-0.08511 0.165285,-0.1897928 0.236121,-0.2326275 0.124394,-0.075219 0.218208,-0.078259 2.74578,-0.089039 2.896258,-0.012413 2.838102,-0.016886 3.052609,0.2380515 0.166325,0.197663 0.184946,0.287561 0.209786,1.012733 l 0.02356,0.688681 1.670105,0.01028 c 1.134515,0.007 1.683495,-0.003 1.711857,-0.03134 0.02482,-0.02475 0.04979,-0.3331 0.06144,-0.761131 0.0195,-0.714063 0.02052,-0.720612 0.129929,-0.863982 0.225531,-0.2955153 0.104632,-0.2821195 2.546081,-0.2821195 l 2.184095,0 0.145587,0.090533 c 0.08006,0.049796 0.186337,0.1560445 0.23612,0.2361185 l 0.09057,0.145592 0,2.702631 c 0,2.666093 -10e-4,2.704136 -0.08107,2.813748 -0.04458,0.0611 -0.690587,0.620884 -1.43562,1.243939 -0.745031,0.623055 -1.368394,1.157472 -1.385252,1.187595 -0.01685,0.03012 -0.02609,2.796498 -0.0204,6.147499 l 0.01017,6.092729 0.570613,0.941272 0.570629,0.941271 0.207364,0.05178 c 0.242809,0.06064 0.397605,0.165253 0.503516,0.340316 0.07169,0.118376 0.07677,0.223389 0.08601,1.759048 0.005,0.898236 0.01874,1.672054 0.02976,1.719601 0.01988,0.0864 0.02052,0.08645 1.233244,0.09839 l 1.213346,0.01191 0.154783,0.107331 c 0.319332,0.221422 0.309096,0.157625 0.322005,2.008387 0.01145,1.549939 0.0076,1.653211 -0.06422,1.814512 -0.09209,0.208068 -0.282825,0.360752 -0.51868,0.415098 -0.206806,0.04765 -26.5850751,0.05259 -26.7845867,0.005 z M 33.623893,36.957628 c 0.245001,-0.133897 0.328391,-0.504575 0.161308,-0.716991 -0.182474,-0.231972 0.554894,-0.216979 -10.671581,-0.216979 -5.679584,0 -10.3825,0.0111 -10.450917,0.02488 -0.153529,0.03071 -0.344312,0.20329 -0.379438,0.343243 -0.06448,0.25683 0.09741,0.538448 0.35214,0.612666 0.07169,0.0209 4.403473,0.03293 10.491718,0.02917 9.832379,-0.006 10.376128,-0.01005 10.49677,-0.07597 z M 32.53982,33.070805 c 0.466868,-0.129671 0.466603,-0.809204 -3.55e-4,-0.944132 -0.100834,-0.02912 -2.996733,-0.03829 -9.550062,-0.03023 -9.162643,0.01122 -9.408239,0.0135 -9.515632,0.0863 -0.325755,0.220785 -0.28684,0.689902 0.07094,0.854593 0.151477,0.06974 0.509482,0.0725 9.503777,0.0731 6.256302,4.32e-4 9.394316,-0.01268 9.491398,-0.03964 z m -0.983824,-1.967656 c 0.466678,-0.129618 0.466678,-0.812114 0,-0.941733 -0.09691,-0.02691 -2.922326,-0.04006 -8.507588,-0.03964 -8.130214,6.25e-4 -8.367107,0.0027 -8.527173,0.07539 -0.378677,0.171927 -0.383238,0.694396 -0.0076,0.879413 0.122746,0.06046 0.776712,0.06556 8.515163,0.06618 5.598767,4.52e-4 8.43038,-0.0127 8.52726,-0.03961 z m 0.09665,-12.81337 c 0.162244,-0.07698 0.250675,-0.231791 0.248775,-0.435462 -0.0012,-0.185093 -0.06765,-0.308548 -0.217702,-0.407436 -0.113116,-0.07461 -0.278885,-0.07607 -8.595994,-0.07574 -6.705249,2.36e-4 -8.500938,0.01063 -8.57779,0.04951 -0.132577,0.06707 -0.276656,0.290856 -0.276656,0.429665 0,0.162744 0.101466,0.337449 0.247863,0.426704 0.123886,0.07556 0.264634,0.07682 8.580957,0.07697 7.74415,1.18e-4 8.466369,-0.0053 8.590547,-0.06419 z m 2.8504,-2.415069 c 0.18963,-0.05268 0.313873,-0.194788 0.339891,-0.38876 0.02736,-0.204031 -0.04307,-0.375476 -0.200435,-0.487708 l -0.122748,-0.08752 -11.348171,-0.01017 c -7.404233,-0.0065 -11.398499,0.0034 -11.492985,0.02889 -0.446424,0.120214 -0.521566,0.69689 -0.118947,0.912815 0.128979,0.06917 0.566156,0.0719 11.468397,0.07169 7.380813,-1.58e-4 11.383363,-0.01385 11.47496,-0.0393 z"
         id="path3010"
         inkscape:connector-curvature="0" />
      <path
         style="fill:#353535;stroke-width:0.05902965"
         d="M 9.5275268,40.59282 C 9.3402149,40.507609 9.2128825,40.359931 9.154511,40.160243 9.127401,40.067393 9.117141,39.456657 9.124993,38.401582 l 0.012667,-1.616415 0.097668,-0.14254 c 0.053707,-0.0784 0.168844,-0.183327 0.2557925,-0.23318 0.1537942,-0.08818 0.1902133,-0.09099 1.3383095,-0.103627 0.845584,-0.0093 1.188528,-0.02605 1.209506,-0.05903 0.01608,-0.02532 0.02951,-0.777096 0.02989,-1.670615 6.46e-4,-1.757969 0.0026,-1.773557 0.216942,-1.986109 0.06004,-0.05954 0.182118,-0.127728 0.271132,-0.151526 0.08906,-0.0238 0.197852,-0.05707 0.241845,-0.07392 0.04775,-0.0183 0.309502,-0.409345 0.649318,-0.970036 L 14.0174,30.4552 14.02757,24.362471 c 0.005,-3.351001 -0.0039,-6.117375 -0.02039,-6.147497 -0.01685,-0.03012 -0.640223,-0.564543 -1.385254,-1.187597 -0.745035,-0.623053 -1.391071,-1.182814 -1.435622,-1.243911 -0.07967,-0.109189 -0.0812,-0.156522 -0.09171,-2.776538 l -0.01017,-2.665452 0.09209,-0.174946 c 0.06194,-0.117692 0.149159,-0.2071418 0.266434,-0.2733262 l 0.174328,-0.098387 2.026679,-0.01178 c 2.119061,-0.012287 2.264965,-0.00305 2.490887,0.1578014 0.218614,0.1556668 0.261936,0.3289378 0.26357,1.0542468 8.11e-4,0.357129 0.01558,0.671652 0.03293,0.69894 0.0247,0.03894 0.399465,0.0474 1.740777,0.03936 l 1.709272,-0.01028 0.02002,-0.688679 c 0.0223,-0.765779 0.06017,-0.905912 0.292554,-1.0831834 0.224657,-0.171353 0.37247,-0.1795766 3.013925,-0.1676857 2.416239,0.010891 2.502085,0.013808 2.631293,0.089952 0.07347,0.043284 0.188566,0.1467151 0.255791,0.2298371 l 0.122242,0.151129 0.01964,0.734316 0.01963,0.734313 1.731541,0 1.73153,0 0.01963,-0.708355 c 0.02091,-0.753674 0.04307,-0.847638 0.242213,-1.0281015 0.216105,-0.1958363 0.162193,-0.191129 2.32943,-0.2033543 2.301587,-0.012984 2.353941,-0.00798 2.578862,0.2482338 0.06688,0.07622 0.135212,0.186948 0.151756,0.246073 0.01659,0.05912 0.03015,1.276286 0.03015,2.704803 0,2.521367 -0.0026,2.601665 -0.07867,2.746411 -0.05548,0.105006 -0.485958,0.489008 -1.456065,1.298652 l -1.377349,1.149546 -0.01017,6.132213 -0.01017,6.132213 0.574795,0.958792 0.574794,0.958792 0.197269,0.04231 c 0.24039,0.05156 0.389459,0.152934 0.510052,0.346875 0.09095,0.146275 0.09132,0.153723 0.110966,1.839053 l 0.01963,1.692183 1.180599,0.01967 c 1.309086,0.02182 1.378096,0.03466 1.575087,0.292926 0.163586,0.21447 0.180446,0.418345 0.168057,2.031821 l -0.01145,1.51218 -0.09691,0.169195 c -0.05333,0.09305 -0.159545,0.208166 -0.236121,0.255795 l -0.139238,0.08661 -13.439075,0.0091 c -13.016981,0.0089 -13.4441382,0.0069 -13.5996047,-0.06391 z M 33.680366,36.948455 c 0.115523,-0.08661 0.229507,-0.293101 0.229507,-0.415806 0,-0.149516 -0.113876,-0.350159 -0.243594,-0.429402 -0.129967,-0.07937 -0.153895,-0.07952 -10.630729,-0.06974 l -10.500471,0.0097 -0.134704,0.146996 c -0.112111,0.122329 -0.134717,0.177047 -0.134717,0.326048 0,0.206012 0.08082,0.351394 0.254119,0.457269 0.116037,0.07087 0.444739,0.07284 10.58766,0.06332 10.39898,-0.0097 10.468625,-0.0104 10.572929,-0.08852 z M 32.648139,33.03962 c 0.145371,-0.07795 0.277896,-0.284525 0.277896,-0.43312 0,-0.151882 -0.117427,-0.35393 -0.255171,-0.439065 -0.128396,-0.07935 -0.154364,-0.07953 -9.640343,-0.06949 l -9.511604,0.01017 -0.134718,0.146996 c -0.114133,0.124609 -0.134704,0.175726 -0.134704,0.335584 0,0.213554 0.06778,0.333964 0.250547,0.445445 0.120467,0.07346 0.340043,0.0752 9.568659,0.07534 9.07273,1.57e-4 9.450649,-0.0027 9.579438,-0.07176 z m -0.980785,-1.967953 c 0.145599,-0.07668 0.274693,-0.280288 0.274794,-0.433438 1.28e-4,-0.151257 -0.117554,-0.353427 -0.255159,-0.438477 -0.128358,-0.07933 -0.156961,-0.07957 -8.656519,-0.0695 l -8.527729,0.01017 -0.134717,0.146997 c -0.115278,0.125863 -0.134705,0.174929 -0.134705,0.341319 0,0.153136 0.0223,0.220776 0.105006,0.319123 0.05776,0.06864 0.141875,0.139711 0.18692,0.157937 0.04509,0.01823 3.889607,0.03426 8.54345,0.03563 8.134204,0.0025 8.466837,-3.15e-4 8.598653,-0.0697 z m 0.0128,-12.768882 c 0.144154,-0.09447 0.261683,-0.294003 0.261872,-0.444603 1.91e-4,-0.161329 -0.145282,-0.372767 -0.315469,-0.458514 -0.129447,-0.06523 -0.600382,-0.06845 -8.597867,-0.05903 -8.236394,0.0097 -8.463849,0.01191 -8.571154,0.08469 -0.362135,0.245447 -0.2677,0.832225 0.151236,0.93962 0.04244,0.01087 3.876395,0.01731 8.52004,0.0143 8.066346,-0.0053 8.447799,-0.0086 8.551342,-0.07647 z m 2.967408,-2.47327 c 0.140089,-0.08657 0.246089,-0.274418 0.246089,-0.43607 0,-0.146207 -0.133539,-0.353075 -0.277897,-0.430494 -0.128978,-0.06917 -0.567979,-0.0719 -11.518852,-0.0719 -12.220763,0 -11.532456,-0.01122 -11.713548,0.191944 -0.04789,0.05371 -0.08208,0.163705 -0.09336,0.300354 -0.01735,0.208638 -0.0128,0.220706 0.13976,0.373245 l 0.157632,0.157638 11.461583,0 11.461569,0 0.137061,-0.08471 z"
         id="path3008"
         inkscape:connector-curvature="0" />
      <path
         style="fill:#000000;stroke-width:0.05902965"
         d="M 9.5180136,40.561788 C 9.3299539,40.46911 9.2016714,40.278946 9.1542831,40.022577 c -0.025591,-0.138333 -0.036739,-0.773646 -0.029261,-1.668438 0.011452,-1.417707 0.013812,-1.448524 0.1028559,-1.629422 0.055226,-0.112228 0.1476758,-0.220019 0.23612,-0.275439 0.1417348,-0.08882 0.1751764,-0.09153 1.365239,-0.110767 l 1.219945,-0.01971 0.01963,-1.692182 c 0.01963,-1.690788 0.01976,-1.692318 0.11287,-1.854795 0.100835,-0.175917 0.295657,-0.304868 0.521225,-0.344939 0.07815,-0.01389 0.168718,-0.0559 0.201158,-0.09336 0.03244,-0.03745 0.300521,-0.473397 0.59571,-0.968764 l 0.536703,-0.900666 0,-6.1466 0,-6.1466 -1.38609,-1.157855 c -0.828485,-0.692081 -1.418189,-1.213264 -1.465895,-1.295593 -0.07752,-0.133824 -0.08019,-0.208557 -0.09132,-2.632253 -0.0076,-1.693647 0.0026,-2.56097 0.03154,-2.701501 0.05269,-0.253963 0.24367,-0.46839 0.471808,-0.5298218 0.104001,-0.028021 0.849653,-0.038319 2.235628,-0.030884 l 2.079502,0.011148 0.158191,0.1047081 c 0.265558,0.1757897 0.302851,0.3030997 0.326742,1.1152377 l 0.02078,0.708354 1.751214,0 1.751215,0 0.02002,-0.728031 c 0.02102,-0.765076 0.04408,-0.869343 0.229153,-1.0368538 0.195103,-0.1765579 0.242898,-0.1795435 2.903059,-0.1813664 1.782643,-0.00123 2.5618,0.011405 2.656337,0.04298 0.0736,0.024587 0.18464,0.091003 0.246836,0.1475732 0.196369,0.178654 0.221426,0.293938 0.221426,1.01853 0,0.462727 0.01419,0.676632 0.04726,0.70962 0.03534,0.03527 0.476611,0.04722 1.743349,0.04722 1.266724,0 1.708068,-0.01191 1.743336,-0.04722 0.03293,-0.03299 0.04726,-0.246893 0.04726,-0.70962 0,-0.470423 0.01558,-0.699628 0.05371,-0.790868 0.06841,-0.163794 0.261694,-0.3267583 0.449298,-0.3788579 0.206364,-0.05732 4.069257,-0.055014 4.276584,0.00254 0.198927,0.055229 0.394892,0.2512009 0.450122,0.4501309 0.02926,0.105494 0.04332,0.973712 0.04346,2.697489 l 2.4e-4,2.541923 -0.08855,0.163512 c -0.06561,0.121138 -0.414921,0.434718 -1.347847,1.209941 -0.692615,0.575534 -1.317014,1.101621 -1.387559,1.169078 l -0.128258,0.122645 0.01017,6.140851 0.01017,6.140852 0.570616,0.940127 0.570627,0.940127 0.21071,0.05378 c 0.25393,0.06482 0.41635,0.174053 0.508076,0.34171 0.06093,0.111316 0.07043,0.309605 0.08791,1.836654 l 0.01963,1.711859 1.222922,0.01967 1.222921,0.01967 0.163181,0.108056 c 0.307957,0.203936 0.301598,0.164772 0.314975,1.938309 0.01267,1.686656 0.0012,1.81156 -0.178472,2.005756 -0.217055,0.234084 0.819137,0.217774 -13.772972,0.216798 C 10.723099,40.626195 9.6381501,40.620929 9.5179493,40.56173 z M 33.679619,36.977215 c 0.176569,-0.109797 0.276084,-0.332156 0.242187,-0.541099 -0.02965,-0.182869 -0.238464,-0.400147 -0.414731,-0.4316 -0.07068,-0.01268 -4.812476,-0.01789 -10.53737,-0.01178 -10.338112,0.0111 -10.40962,0.01178 -10.515811,0.0899 -0.35741,0.263096 -0.266888,0.837141 0.151881,0.963193 0.06182,0.01863 4.796453,0.03087 10.521348,0.02725 l 10.408884,-0.0065 0.143612,-0.08931 z M 32.71496,33.043167 c 0.332062,-0.236857 0.288069,-0.755916 -0.0788,-0.930014 -0.123761,-0.05875 -0.927911,-0.06415 -9.545756,-0.06415 -7.883986,0 -9.431078,0.0088 -9.53718,0.05396 -0.203096,0.08654 -0.312732,0.233748 -0.332557,0.446509 -0.02128,0.227958 0.09172,0.425201 0.305094,0.532666 0.12955,0.06525 0.648532,0.06845 9.601377,0.05903 l 9.46442,-0.01005 0.12338,-0.08804 z m -0.996759,-1.954496 c 0.154466,-0.104679 0.276175,-0.356343 0.246989,-0.510709 -0.03584,-0.189633 -0.157253,-0.35862 -0.309592,-0.430904 -0.128029,-0.06075 -0.775128,-0.06572 -8.56521,-0.06572 -7.050576,0 -8.447393,0.0089 -8.553343,0.05396 -0.198752,0.08469 -0.31015,0.23201 -0.333747,0.441388 -0.02635,0.233314 0.05891,0.404679 0.259238,0.521072 l 0.144635,0.08407 8.500266,-0.0091 c 8.282477,-0.0089 8.503104,-0.01098 8.610764,-0.08401 z m 0.06309,-12.829593 c 0.248509,-0.238094 0.242593,-0.577589 -0.01393,-0.802875 -0.114004,-0.100087 -0.178257,-0.121898 -0.422496,-0.143447 -0.158431,-0.01398 -3.989224,-0.02002 -8.512858,-0.01345 -7.830655,0.01145 -8.231008,0.01537 -8.354438,0.08273 -0.359234,0.19613 -0.379414,0.72448 -0.03572,0.934471 0.12414,0.07585 0.250409,0.07683 8.67286,0.06712 l 8.546882,-0.0099 0.119707,-0.114716 z m 2.83753,-2.378822 c 0.38781,-0.207366 0.376118,-0.778563 -0.01951,-0.953575 -0.167237,-0.07397 -0.404952,-0.07531 -11.578593,-0.06542 -10.919684,0.0096 -11.412495,0.01316 -11.516229,0.08112 -0.349657,0.229106 -0.337763,0.712792 0.02293,0.932709 0.127206,0.07756 0.222312,0.07819 11.541274,0.07834 11.058317,1.57e-4 11.417271,-0.0021 11.550139,-0.07316 z"
         id="path3006"
         inkscape:connector-curvature="0" />
    </g>
  </g>
</svg>
