<?xml version="1.0" encoding="UTF-8" standalone="no"?>
<svg
   xmlns:svg="http://www.w3.org/2000/svg"
   xmlns="http://www.w3.org/2000/svg"
   xmlns:sodipodi="http://sodipodi.sourceforge.net/DTD/sodipodi-0.dtd"
   xmlns:inkscape="http://www.inkscape.org/namespaces/inkscape"
   version="1.1"
   width="45"
   height="45"
   id="svg2"
   inkscape:version="0.48.2 r9819"
   sodipodi:docname="black-queen.svg">
  <defs
     id="defs36" />
  <sodipodi:namedview
     pagecolor="#ffffff"
     bordercolor="#666666"
     borderopacity="1"
     objecttolerance="10"
     gridtolerance="10"
     guidetolerance="10"
     inkscape:pageopacity="0"
     inkscape:pageshadow="2"
     inkscape:window-width="837"
     inkscape:window-height="600"
     id="namedview34"
     showgrid="false"
     inkscape:zoom="4.1815955"
     inkscape:cx="44.017397"
     inkscape:cy="21.030949"
     inkscape:window-x="248"
     inkscape:window-y="172"
     inkscape:window-maximized="0"
     inkscape:current-layer="g3018" />
  <g
     style="opacity:1; fill:000000; fill-opacity:1; fill-rule:evenodd; stroke:#000000; stroke-width:1.5; stroke-linecap:round;stroke-linejoin:round;stroke-miterlimit:4; stroke-dasharray:none; stroke-opacity:1;"
     id="g4">
    <g
       id="g3018"
       transform="matrix(0.8554489,0,0,0.8554489,6.449675,6.0637973)">
      <path
         style="fill:#d0d0d0;stroke-width:0.08145042"
         d="M 15.828608,39.146357 C 12.421647,38.895347 9.34604,38.304661 6.196257,37.296416 5.1026826,36.946361 4.7947093,36.78173 4.2837852,36.274077 3.3399561,35.336293 3.2089514,34.220075 3.9174729,33.152963 4.0392068,32.969621 4.1546942,32.6969 4.2173012,32.444936 4.4185523,31.634982 4.8918101,30.824956 5.5250651,30.206577 l 0.3711472,-0.36243 0.1322021,-0.669276 C 6.234887,28.129614 6.2583989,28.241386 5.6306372,27.283839 5.4054739,26.940389 5.1094138,26.48873 4.9727262,26.280149 4.8360362,26.071569 4.3576738,25.520152 3.9096969,25.054775 3.4617189,24.5894 3.0140485,24.071831 2.9148732,23.904623 2.658326,23.472092 2.4828313,22.928001 2.4187086,22.366355 2.3775553,22.005907 0.00734176,9.9791662 -0.16111284,9.2760477 -0.18395134,9.1807483 -0.24418314,9.1532865 -0.50072114,9.1212338 -1.7651462,8.9632545 -2.8760252,7.9802249 -3.2012825,6.7314745 -3.3067749,6.3264501 -3.3083599,5.5203846 -3.2044064,5.1293248 -2.8278074,3.7123154 -1.5584341,2.7270216 -0.10630374,2.7245619 0.81389086,2.7229419 1.5118192,3.0167866 2.1744379,3.6846094 2.8801931,4.3959065 3.1593117,5.1216356 3.1059974,6.1067291 3.0643814,6.8757623 2.8081626,7.508352 2.3087839,8.0750408 c -0.1249734,0.1418188 -0.2190684,0.2784938 -0.2091,0.3037226 0.057316,0.1450642 5.9888752,9.1853256 6.0267358,9.1853256 0.025234,0 0.046302,-0.335983 0.046834,-0.746629 5.427e-4,-0.410645 0.048963,-2.89692 0.1076328,-5.525054 C 8.339556,8.6642731 8.387987,6.3255511 8.388519,6.0952473 L 8.389463,5.6765128 8.1604172,5.6148348 C 7.364606,5.4005447 6.500823,4.67871 6.1499042,3.9347159 5.8987646,3.4022687 5.8162658,3.0336772 5.8207398,2.4640532 5.8273298,1.6224908 6.155394,0.84624734 6.7599004,0.24174074 c 0.6342869,-0.634287 1.3567869,-0.923087 2.3061506,-0.9218225 0.455909,6.086e-4 0.616794,0.025662 0.982633,0.1530195 1.803364,0.627801 2.682129,2.63014946 1.910467,4.35317696 -0.20164,0.4502377 -0.600523,0.9521489 -0.960955,1.2091602 -0.177246,0.1263895 -0.324098,0.2664509 -0.326338,0.3112487 -0.0062,0.1257208 4.310581,11.4016444 4.348716,11.3591114 C 15.052394,16.670155 17.56665,4.5655215 17.56608,4.4505686 17.565917,4.4207073 17.400963,4.3119835 17.199484,4.2089705 16.965825,4.0895043 16.694699,3.8830202 16.450841,3.6388178 15.812201,2.9992759 15.505269,2.2586971 15.503604,1.3532851 c -0.0016,-0.89189396 0.285799,-1.57014686 0.944625,-2.22897196 0.679654,-0.67965404 1.312274,-0.94413804 2.258288,-0.94413804 0.946015,0 1.578635,0.264484 2.25829,0.94413804 0.658825,0.6588251 0.946264,1.337078 0.944624,2.22897196 -0.0016,0.905412 -0.308596,1.6459908 -0.947238,2.2855327 -0.243858,0.2442024 -0.514983,0.4506865 -0.748643,0.5701527 -0.201479,0.1030165 -0.366446,0.2117321 -0.366595,0.2415981 -5.7e-4,0.1149564 2.513687,12.2195774 2.545506,12.2550664 0.03813,0.04253 4.355002,-11.2333906 4.348716,-11.3591114 -0.0023,-0.044798 -0.149093,-0.1848592 -0.326339,-0.3112487 -0.36043,-0.2570113 -0.759313,-0.7589225 -0.960954,-1.2091602 -0.519901,-1.1608775 -0.291792,-2.549687 0.572088,-3.48306526 0.377399,-0.4077606 0.800609,-0.6828992 1.338378,-0.8701117 0.365839,-0.1273591 0.526724,-0.1524121 0.982634,-0.1530195 0.949364,-0.00127 1.671863,0.2875355 2.306151,0.9218225 0.604507,0.6045066 0.932551,1.38075006 0.93916,2.22231246 0.0045,0.569624 -0.07803,0.9382155 -0.329163,1.4706627 -0.350919,0.7439941 -1.214704,1.4658288 -2.010514,1.6801189 l -0.229047,0.061678 9.45e-4,0.4187345 c 5.43e-4,0.2303038 0.04897,2.5690258 0.107633,5.1971587 0.05867,2.628134 0.107112,5.114409 0.107633,5.525054 5.42e-4,0.410646 0.0216,0.746629 0.04683,0.746629 0.03786,0 5.969416,-9.0402614 6.026736,-9.1853256 0.01,-0.025233 -0.08412,-0.1619038 -0.2091,-0.3037226 -0.499381,-0.5666888 -0.755595,-1.1992785 -0.797216,-1.9683117 -0.05331,-0.9850935 0.225804,-1.7108226 0.931561,-2.4221197 0.662617,-0.6678228 1.360546,-0.9616059 2.28074,-0.9600475 1.45213,0.00243 2.721504,0.9877535 3.098104,2.4047629 0.10393,0.3910598 0.102345,1.1971253 -0.0031,1.6021497 -0.266629,1.0236588 -1.035588,1.8596389 -2.048864,2.2274379 -0.186914,0.067845 -0.480178,0.1408909 -0.651697,0.1623214 -0.256542,0.032048 -0.316776,0.059503 -0.339609,0.1548139 -0.168454,0.7031185 -2.538669,12.7298593 -2.579821,13.0903073 -0.06412,0.561646 -0.239617,1.105737 -0.496164,1.538268 -0.09918,0.167208 -0.546846,0.684777 -0.994824,1.150152 -0.447977,0.465377 -0.926341,1.016794 -1.063028,1.225374 -0.136689,0.208581 -0.43275,0.66024 -0.657913,1.00369 -0.627914,0.957781 -0.604335,0.845326 -0.397165,1.894164 l 0.132815,0.672408 0.315573,0.332148 c 0.656533,0.691017 0.936365,1.336198 0.979621,2.258617 0.0251,0.535109 0.03765,0.585479 0.210973,0.846528 0.530464,0.798935 0.612888,1.723737 0.224714,2.52128 -0.18048,0.370814 -0.718589,0.98405 -0.98435,1.121778 -0.08402,0.04354 -0.5605,0.209678 -1.058856,0.369198 -3.194208,1.022443 -6.23259,1.600019 -9.729896,1.849592 -1.358306,0.09693 -4.310891,0.09526 -5.647229,-0.0032 z m 5.620079,-1.115561 c 2.859771,-0.19047 5.842766,-0.706093 8.497994,-1.468912 0.95835,-0.275323 2.567966,-0.813198 2.774205,-0.927036 0.255462,-0.141008 0.393044,-0.381344 0.388548,-0.678739 -0.0042,-0.277879 -0.114297,-0.468456 -0.355664,-0.615622 -0.260736,-0.158983 -0.480256,-0.132244 -1.370167,0.166893 -2.782406,0.93528 -5.405664,1.518151 -8.278757,1.839487 -1.566995,0.175258 -2.654404,0.232817 -4.398323,0.232817 -4.4469,0 -8.467206,-0.657194 -12.6770812,-2.072304 -0.4468569,-0.150208 -0.8940112,-0.273105 -0.9936759,-0.273105 -0.4912614,0 -0.844434,0.470211 -0.7123835,0.948462 0.094617,0.342691 0.3319388,0.479345 1.4972741,0.86218 3.8833915,1.275769 7.5651085,1.926355 11.6912595,2.065927 0.78288,0.02648 3.020411,-0.01902 3.936771,-0.08005 z m -1.330356,-3.742478 c 3.741405,-0.142629 7.078478,-0.695199 10.507103,-1.739825 0.935698,-0.285087 1.093191,-0.359656 1.231184,-0.582933 0.306981,-0.496706 -0.04165,-1.152203 -0.612812,-1.152203 -0.09591,0 -0.616368,0.133157 -1.156579,0.295904 -3.34577,1.007966 -6.697314,1.555112 -10.110388,1.650539 -4.464013,0.124811 -8.510382,-0.403106 -12.6510216,-1.650539 -0.5402104,-0.162747 -1.0655651,-0.295812 -1.1674546,-0.2957 -0.1018942,1.08e-4 -0.2633421,0.04782 -0.3587816,0.106013 -0.4819224,0.293846 -0.488325,0.907282 -0.013166,1.261961 0.2334241,0.174239 2.3606035,0.78993 3.9848448,1.153377 2.789751,0.624242 5.200476,0.901244 8.690915,0.998623 0.149325,0.0042 0.894596,-0.01618 1.656159,-0.04522 z M 30.47519,28.789753 c 0.219878,-0.120167 0.357751,-0.379483 0.358115,-0.673553 3.26e-4,-0.26598 -0.118925,-0.470466 -0.360147,-0.617549 -0.170559,-0.104 -0.371034,-0.105805 -11.727654,-0.106013 -9.72891,-1.62e-4 -11.5826016,0.0117 -11.7343634,0.0751 -0.5666411,0.236759 -0.5706257,1.082499 -0.00636,1.342992 0.2093013,0.09662 0.6368924,0.0998 11.7560104,0.08762 10.915274,-0.01197 11.548297,-0.01784 11.714366,-0.108593 z M 6.3022977,25.869093 c 0.266923,-0.09121 0.9495814,-0.299776 1.5170187,-0.463478 7.5070606,-2.165727 15.6563586,-2.026347 23.0732896,0.394631 0.837441,0.273351 1.086608,0.287098 1.382664,0.07629 0.316363,-0.22527 0.357031,-0.76061 0.08256,-1.086798 -0.111139,-0.132087 -0.290593,-0.212791 -0.96167,-0.432493 -7.61161,-2.491944 -15.954032,-2.672473 -23.6854467,-0.512548 -1.1813788,0.330041 -2.2972132,0.699822 -2.514655,0.833339 -0.4421527,0.271502 -0.432964,0.952953 0.016846,1.248976 0.2293215,0.15092 0.5241181,0.135247 1.0893942,-0.05792 z"
         id="path3032"
         inkscape:connector-curvature="0" />
      <path
         style="fill:#aeaeae;stroke-width:0.08145042"
         d="M 17.674817,39.19479 C 14.887055,39.116046 12.122953,38.767588 9.502625,38.164542 7.6860661,37.746476 5.4879507,37.077363 4.9957024,36.79262 4.1126904,36.28184 3.5024441,35.358375 3.5024441,34.532927 c 0,-0.404733 0.1739479,-0.919981 0.459306,-1.360508 0.1343517,-0.207406 0.2447971,-0.427801 0.2454357,-0.489767 0.00116,-0.117611 0.1958307,-0.711275 0.3532779,-1.077641 0.158065,-0.367805 0.6041688,-0.979897 0.997133,-1.36815 L 5.9358905,29.863102 6.0487991,29.29295 c 0.062094,-0.313585 0.128192,-0.705333 0.1468701,-0.870553 L 6.2296262,28.121998 5.7755637,27.435017 C 5.5258287,27.057178 5.2115417,26.57122 5.0771483,26.355111 4.9304586,26.119232 4.4964047,25.611585 3.9911428,25.08498 2.8376815,23.882792 2.6020753,23.454341 2.4454381,22.274104 2.3633974,21.65591 -0.10357914,9.2434131 -0.16374954,9.1460554 c -0.017956,-0.02904 -0.107089,-0.052816 -0.1980718,-0.052816 -0.59269047,0 -1.43453866,-0.4056862 -1.98158096,-0.9549233 C -2.9671504,7.5120659 -3.2490595,6.8302704 -3.2507846,5.9438245 -3.2537927,4.4086054 -2.2212727,3.1363049 -0.72092457,2.8263994 -0.20636184,2.7201088 0.05424056,2.71916 0.54307466,2.8217715 1.654876,3.0551968 2.5926437,3.9015144 2.9328687,4.978514 3.0939927,5.4885645 3.1159728,6.2256515 2.985048,6.7283125 2.8742451,7.1537054 2.5804308,7.7014002 2.2768585,8.0484294 2.1262896,8.2205515 2.0443149,8.3585547 2.0678951,8.4002125 c 0.043907,0.077563 6.0017429,9.2328995 6.0311045,9.2679215 0.010413,0.01244 0.034177,0.0074 0.052758,-0.01122 C 8.2006045,17.608053 8.44862,5.7088998 8.401665,5.6667249 8.380018,5.6472878 8.1988355,5.5779738 7.9990248,5.5127093 6.6844061,5.0832821 5.7555898,3.6861123 5.8575453,2.2913931 5.952058,0.99852744 6.7867814,-0.06499236 8.0490845,-0.50082916 c 0.3468685,-0.1197636 0.5183295,-0.1458 0.9648365,-0.1465092 0.915711,-0.0015 1.579058,0.2713507 2.229038,0.9167017 0.992661,0.98559226 1.229703,2.39286226 0.615619,3.65480216 -0.208114,0.4276744 -0.605666,0.9023761 -0.963742,1.1507725 -0.150683,0.1045321 -0.275115,0.224379 -0.276514,0.2663341 -0.0022,0.06663 4.326641,11.4533479 4.376604,11.5123019 0.01053,0.01244 0.02896,0.01244 0.04092,0 0.02017,-0.02099 2.584664,-12.3681656 2.584664,-12.4442953 0,-0.018882 -0.174205,-0.1258619 -0.387122,-0.2377477 -1.046598,-0.5499717 -1.680167,-1.5861257 -1.688775,-2.7618599 -0.0065,-0.87730806 0.261616,-1.56123246 0.861539,-2.19828796 0.628917,-0.66784604 1.394271,-1.00083424 2.300363,-1.00083424 0.906092,0 1.671445,0.3329882 2.300363,1.00083424 0.599924,0.6370555 0.867962,1.3209799 0.86154,2.19828796 -0.0086,1.1757342 -0.642178,2.2118882 -1.688776,2.7618599 -0.212917,0.1118904 -0.387121,0.2188706 -0.387121,0.2377477 0,0.076129 2.564494,12.4233153 2.584663,12.4442973 0.01196,0.01244 0.03038,0.01244 0.04092,0 0.04997,-0.05896 4.378826,-11.4456741 4.376604,-11.5123016 -0.0014,-0.041952 -0.125825,-0.1618066 -0.276509,-0.2663341 -0.549905,-0.3814662 -1.030237,-1.1009153 -1.213028,-1.8168934 -0.408893,-1.6016188 0.597343,-3.32417766 2.225138,-3.80917416 0.517236,-0.1541081 1.304139,-0.1325214 1.833641,0.050305 1.262303,0.4358369 2.09703,1.4993567 2.191539,2.79222226 0.101952,1.3947193 -0.826861,2.791889 -2.141478,3.2213162 -0.199812,0.065265 -0.381,0.1345762 -0.402641,0.1540156 -0.04695,0.042172 0.201054,11.9413342 0.249907,11.9901872 0.01859,0.01858 0.04232,0.02361 0.05276,0.01122 0.02936,-0.03502 5.987196,-9.190355 6.031103,-9.2679216 C 35.36872,8.3585554 35.28675,8.2205576 35.136178,8.0484343 34.832605,7.7014052 34.538789,7.1537115 34.427987,6.7283186 34.297061,6.2256565 34.319036,5.4885706 34.480167,4.9785189 34.820389,3.9015205 35.758158,3.0552017 36.86996,2.8217765 c 0.488834,-0.1026347 0.749436,-0.1016859 1.264,0.00463 1.500346,0.3099043 2.532847,1.5822059 2.529859,3.1174239 -0.0017,0.886447 -0.283634,1.5682414 -0.907383,2.194492 -0.547042,0.5492359 -1.38889,0.9549222 -1.98158,0.9549222 -0.09098,0 -0.180121,0.023764 -0.198072,0.052816 -0.06017,0.097359 -2.527143,12.5098544 -2.609188,13.1280494 -0.156637,1.180237 -0.392243,1.608688 -1.545705,2.810876 -0.505261,0.526605 -0.939317,1.034252 -1.086005,1.270131 -0.134393,0.216109 -0.44868,0.702067 -0.698414,1.079906 l -0.454064,0.686981 0.03396,0.300399 c 0.01867,0.16522 0.08513,0.556254 0.147668,0.868966 l 0.113707,0.568566 0.376575,0.403233 c 0.619353,0.663196 0.913231,1.397571 0.923838,2.308582 0.004,0.353966 0.02611,0.449823 0.142218,0.619801 0.238664,0.349419 0.450411,0.85879 0.512326,1.23244 0.117508,0.709132 -0.140628,1.455278 -0.710123,2.05263 -0.371163,0.389322 -0.479052,0.446095 -1.44655,0.761218 -3.10643,1.011798 -6.665252,1.684939 -9.93695,1.879549 -1.029665,0.06125 -2.865035,0.100009 -3.66527,0.0774 z m 3.896402,-1.132285 c 3.09773,-0.22686 5.708398,-0.693254 8.674114,-1.549623 1.062732,-0.30687 2.412141,-0.771651 2.602524,-0.896396 0.413144,-0.270703 0.386856,-1.019246 -0.04575,-1.3027 -0.282749,-0.185264 -0.503833,-0.163551 -1.366288,0.134188 -2.72164,0.93957 -5.714388,1.592848 -8.711076,1.901511 -5.609629,0.577801 -11.50449,-0.0915 -16.7475157,-1.901511 -0.6227427,-0.214984 -0.8589655,-0.273246 -1.0201983,-0.25162 -0.4510717,0.0605 -0.7129376,0.384584 -0.6792166,0.840593 0.035137,0.475156 0.1893147,0.588608 1.3341867,0.981753 3.1579919,1.084449 6.5799689,1.773811 10.1351589,2.041744 1.319031,0.09941 4.479543,0.100529 5.82406,0.0021 z m -0.394033,-3.774259 c 2.235595,-0.145331 4.425521,-0.455165 6.516034,-0.921898 1.557117,-0.347647 3.649314,-0.950863 3.96392,-1.142865 0.449081,-0.274072 0.476406,-0.959795 0.05157,-1.293976 -0.270203,-0.212544 -0.520696,-0.200442 -1.381921,0.06676 -7.480615,2.320922 -15.774679,2.332061 -23.1381815,0.03108 -0.3767586,-0.117731 -0.792155,-0.227584 -0.9231041,-0.244118 -0.6169244,-0.07789 -1.0515857,0.565599 -0.7753122,1.147802 0.1192603,0.251324 0.3126198,0.355666 1.1345253,0.612222 2.9305975,0.914777 6.2885665,1.530047 9.5025495,1.741121 0.955108,0.06273 4.10746,0.06515 5.049925,0.0039 z m 9.302673,-5.456849 c 0.540395,-0.32563 0.514641,-1.11616 -0.04555,-1.39842 -0.178611,-0.08999 -0.824636,-0.09445 -11.784474,-0.08145 -11.0718736,0.01314 -11.6022555,0.01819 -11.7450277,0.11174 -0.3542403,0.232116 -0.4696606,0.745969 -0.2480873,1.104483 0.1217788,0.197044 0.2525162,0.286406 0.5109991,0.349286 0.089596,0.0218 5.3309309,0.03588 11.6474109,0.0313 11.380723,-0.0082 11.486138,-0.0094 11.664735,-0.116932 z M 6.6776274,25.795463 c 3.9984506,-1.270568 7.8862466,-1.877328 12.0288956,-1.877328 4.181279,0 7.999731,0.602517 12.190413,1.923535 0.571613,0.180188 0.872987,0.249129 1.010616,0.231183 0.712169,-0.09286 0.940058,-1.038914 0.34429,-1.429276 -0.297339,-0.194823 -2.68499,-0.915522 -4.205671,-1.269459 -6.674171,-1.553402 -13.803548,-1.40047 -20.3626051,0.436794 -1.1784274,0.330091 -2.3411202,0.713912 -2.5223615,0.832665 -0.2239451,0.146735 -0.324525,0.349855 -0.324525,0.655381 0,0.328146 0.1401366,0.564385 0.415222,0.699969 0.2741008,0.135098 0.4305264,0.11277 1.425726,-0.203464 z"
         id="path3030"
         inkscape:connector-curvature="0" />
      <path
         style="fill:#8d8d8d;stroke-width:0.08145042"
         d="M 16.045809,39.092138 C 12.515816,38.847261 9.461104,38.267266 6.1583848,37.214824 5.1460805,36.892245 4.7567572,36.674672 4.2644569,36.156409 3.7681615,35.633938 3.5987906,35.270866 3.5679505,34.66334 3.5385519,34.084229 3.6309937,33.736675 3.9426763,33.254436 4.0932441,33.02148 4.2128457,32.740633 4.2997062,32.416061 4.5219806,31.585495 5.0532986,30.705188 5.6571711,30.166964 L 5.9448663,29.910547 6.0811618,29.241329 C 6.2921696,28.205278 6.2844341,28.145266 5.8596533,27.52311 5.6628611,27.234876 5.3926697,26.814378 5.2592273,26.588671 4.9482713,26.062711 4.7289321,25.799144 3.8220346,24.86168 3.1882706,24.206555 3.0484926,24.02971 2.856348,23.639924 2.6339764,23.188818 2.4735049,22.601997 2.4716816,22.233258 2.4708624,22.0726 -0.02541894,9.4636871 -0.10785064,9.2039686 -0.12756534,9.1418626 -0.27262724,9.0899841 -0.59876844,9.0284103 -1.2319215,8.908877 -1.7716113,8.6416358 -2.2122218,8.2294648 -2.8683395,7.615699 -3.1669923,6.9831313 -3.2144245,6.1067291 -3.2488675,5.4704545 -3.1494145,5.0023475 -2.8638794,4.4567225 -2.4782955,3.7199074 -1.6810612,3.08973 -0.86588805,2.8774044 -0.46379424,2.7726756 0.22449886,2.7721203 0.66581276,2.8761317 2.2798771,3.2566863 3.3483672,4.9499889 2.9902243,6.5597735 2.8732594,7.0855068 2.5935566,7.6477528 2.2698936,8.0077423 2.0535764,8.2483396 2.0253788,8.3057541 2.0681126,8.4186083 c 0.09169,0.2421441 6.0218661,9.3025217 6.0905807,9.3054537 0.048986,0.0021 0.068088,-0.121735 0.06862,-0.445083 4.35e-4,-0.246387 0.048882,-2.622703 0.1077017,-5.280702 C 8.393845,9.340278 8.44237,6.8204153 8.442868,6.3985824 L 8.443749,5.6316109 8.0594347,5.5080374 C 7.0582524,5.1861146 6.2400378,4.3191926 5.9777126,3.3023935 5.8683097,2.8783403 5.8672569,2.1505889 5.9753987,1.7352304 6.264245,0.62627414 7.1876488,-0.28405736 8.2864018,-0.54305616 9.935644,-0.93181596 11.570046,0.03147684 12.0603,1.6812231 c 0.12997,0.4373652 0.129996,1.2457944 5.3e-5,1.6833076 -0.20038,0.6746721 -0.645175,1.2879925 -1.300747,1.7935795 l -0.209059,0.1612316 2.20981,5.7829802 c 1.215396,3.180639 2.219682,5.79316 2.231746,5.805604 0.01207,0.01244 0.03636,0.0082 0.05399,-0.0094 0.04158,-0.04158 2.574364,-12.2832816 2.574364,-12.4426933 0,-0.095299 -0.07221,-0.1549469 -0.339377,-0.2803634 -0.471924,-0.2215305 -1.152941,-0.9018705 -1.385956,-1.384575 -0.258759,-0.5360395 -0.3552,-1.0173568 -0.32026,-1.5983503 0.06945,-1.15488216 0.723994,-2.14534166 1.737422,-2.6290828 0.515232,-0.2459367 0.871268,-0.330282 1.394176,-0.330282 0.522909,0 0.878943,0.084343 1.394177,0.330282 1.553936,0.74174384 2.187486,2.6316443 1.417161,4.2274331 -0.233015,0.4827045 -0.914032,1.1630445 -1.385956,1.384575 -0.267174,0.1254165 -0.339377,0.185064 -0.339377,0.2803634 0,0.1594117 2.532778,12.4011073 2.574364,12.4426933 0.01762,0.01762 0.04192,0.02187 0.05399,0.0094 0.01207,-0.01245 1.016351,-2.624965 2.231746,-5.805604 L 26.862377,5.3193418 26.653315,5.1581102 C 25.997744,4.6525232 25.55295,4.0392028 25.35257,3.3645307 c -0.129944,-0.4375132 -0.129919,-1.2459424 5.3e-5,-1.6833076 0.327041,-1.10052656 1.196401,-1.94745506 2.284073,-2.22513776 1.630338,-0.4162274 3.370576,0.6272965 3.800827,2.27914506 0.108188,0.4153585 0.107135,1.1431099 -0.0023,1.5671631 -0.262324,1.0167991 -1.08054,1.8837211 -2.081722,2.2056439 l -0.384312,0.1235735 8.81e-4,0.7669703 c 4.88e-4,0.4218341 0.04902,2.9416956 0.107853,5.5996948 0.05883,2.657998 0.107297,5.034315 0.107702,5.280702 5.42e-4,0.323347 0.01962,0.447173 0.06862,0.445083 0.06871,-0.003 5.99889,-9.0633097 6.090581,-9.3054539 0.04274,-0.1128507 0.01454,-0.1702675 -0.201781,-0.410866 -0.939229,-1.0446473 -1.043226,-2.6400068 -0.249457,-3.82679 0.598001,-0.8940865 1.527318,-1.3837431 2.630041,-1.3857702 0.834784,-0.0015 1.59179,0.3159865 2.19755,0.9217461 0.656685,0.6566847 0.957101,1.4489383 0.906183,2.3897685 -0.04746,0.8764022 -0.346108,1.5089699 -1.002226,2.1227346 -0.440612,0.412171 -0.980301,0.6794122 -1.613453,0.7989455 -0.326142,0.061574 -0.471205,0.1134523 -0.490918,0.1755595 -0.08243,0.2597173 -2.578739,12.8686309 -2.579532,13.0292889 -0.0019,0.36874 -0.162295,0.955561 -0.384667,1.406665 -0.192143,0.389787 -0.331922,0.566631 -0.965686,1.221756 -0.906898,0.937465 -1.126236,1.201031 -1.437193,1.726991 -0.133442,0.225709 -0.403634,0.646206 -0.600427,0.934441 -0.424621,0.621925 -0.432459,0.682446 -0.222105,1.715283 l 0.135698,0.666283 0.37414,0.393872 c 0.60781,0.639867 0.928642,1.451324 0.929528,2.350992 2.72e-4,0.275957 0.02698,0.402032 0.111428,0.525878 0.572464,0.839602 0.697669,1.772001 0.339618,2.529121 -0.210225,0.444535 -0.548392,0.865055 -0.86348,1.07376 -0.522547,0.34612 -3.504097,1.194624 -5.737376,1.63277 -3.36774,0.660715 -7.257339,0.911218 -10.575038,0.681068 z m 4.669824,-0.94849 c 2.754396,-0.14939 5.46929,-0.548703 7.927842,-1.166047 1.93205,-0.485139 3.998296,-1.161067 4.264938,-1.395182 0.419328,-0.368174 0.34503,-1.071149 -0.139702,-1.321813 -0.266117,-0.137614 -0.583197,-0.09531 -1.439408,0.192039 -4.188538,1.405704 -8.203334,2.061329 -12.62278,2.061329 -4.419446,0 -8.434243,-0.655625 -12.62278,-2.061329 -0.8989608,-0.301697 -1.2013309,-0.335623 -1.4795274,-0.165998 -0.1937112,0.118113 -0.395867,0.4655 -0.395867,0.680262 0,0.217041 0.1315137,0.480209 0.3186799,0.637699 0.1683481,0.141655 1.5855427,0.638585 2.8850363,1.011619 4.2099702,1.208519 9.0139452,1.760077 13.3035682,1.527421 z m -0.0543,-3.801597 c 3.383271,-0.173888 6.862527,-0.769711 9.855501,-1.687755 1.043414,-0.32005 1.147064,-0.364417 1.325149,-0.567246 0.455202,-0.518447 0.09468,-1.328291 -0.591124,-1.327827 -0.134927,1.09e-4 -0.526326,0.0872 -0.869775,0.193586 -3.825659,1.184976 -7.640596,1.760145 -11.674561,1.760145 -4.033964,0 -7.848901,-0.575169 -11.67456,-1.760145 -0.3434492,-0.106383 -0.7221931,-0.193457 -0.8416547,-0.193502 -0.8211037,-3.26e-4 -1.1255402,0.980397 -0.4581964,1.476026 0.07282,0.05408 0.523358,0.218946 1.0011995,0.36637 4.3970226,1.356561 9.3510976,1.975588 13.9280216,1.740348 z m 9.861743,-5.514009 c 0.386994,-0.288937 0.486167,-0.659403 0.282227,-1.054257 -0.07366,-0.142608 -0.204133,-0.288519 -0.315617,-0.352953 -0.189147,-0.109322 -0.245165,-0.109843 -11.787127,-0.109843 l -11.5970757,0 -0.2211938,0.14638 c -0.4141365,0.274062 -0.5024953,0.820849 -0.1922335,1.189576 0.2855083,0.339306 -0.5823264,0.317414 12.078366,0.304703 l 11.602707,-0.01165 0.149949,-0.11196 z M 6.5975606,25.843301 c 7.9254474,-2.534895 16.4352654,-2.530785 24.2405924,0.01171 0.620338,0.202068 0.807668,0.241858 1.045698,0.222119 0.580401,-0.04813 0.89156,-0.621967 0.632865,-1.167127 -0.127758,-0.26923 -0.302033,-0.358767 -1.348279,-0.6927 -4.106029,-1.310536 -8.097851,-1.928172 -12.461914,-1.928172 -4.364063,0 -8.355886,0.617636 -12.4619152,1.928172 -1.0462451,0.333933 -1.2205192,0.42347 -1.3482774,0.6927 -0.2351862,0.495618 0.040586,1.089864 0.5461676,1.176907 0.2541917,0.04376 0.2612631,0.04226 1.1550626,-0.243604 z"
         id="path3028"
         inkscape:connector-curvature="0" />
      <path
         style="fill:#6f6f6f;stroke-width:0.08145042"
         d="M 16.968913,39.116584 C 13.369139,38.972726 9.642053,38.312632 6.2259413,37.213926 5.2591949,36.902997 4.9927151,36.777827 4.577588,36.439667 3.4611496,35.530222 3.254809,34.270272 4.0362912,33.134425 4.1248918,33.005653 4.239235,32.730064 4.2903926,32.522004 4.4984097,31.675994 4.8865008,30.999232 5.5660368,30.297505 L 5.9867023,29.863102 6.1118932,29.211499 C 6.3136834,28.161206 6.3131917,28.158073 5.8334804,27.43876 5.6073602,27.0997 5.3038192,26.628944 5.1589448,26.392634 4.9842044,26.107611 4.6268679,25.684788 4.0973918,25.136538 3.6584115,24.681994 3.226078,24.203372 3.136649,24.072933 2.7526964,23.512909 2.5624943,22.977285 2.4932474,22.261063 2.4405013,21.715466 -0.06645434,9.2038009 -0.14103014,9.1139426 c -0.0342347,-0.041246 -0.1396391,-0.074995 -0.2342363,-0.074995 -0.54889462,0 -1.41062066,-0.4043383 -1.90945446,-0.8959538 C -3.5375507,6.9082928 -3.5179528,4.8961147 -2.2412999,3.6851173 -1.1725263,2.6713055 0.29749896,2.5192475 1.5805824,3.2897871 2.2020848,3.6630227 2.7790891,4.4679197 2.9567613,5.2095027 3.0460214,5.5820811 3.0351459,6.3420333 2.9351607,6.7179854 2.8181681,7.1579017 2.5744909,7.6163816 2.2512086,8.0048441 L 1.9741182,8.3378033 2.078199,8.5119004 c 0.2289814,0.3830293 5.94877,9.1389956 6.0176016,9.2118606 0.040633,0.04302 0.087791,0.06432 0.104775,0.04733 0.016984,-0.01698 0.089711,-2.74005 0.1616114,-6.051249 C 8.463954,7.033287 8.478445,5.6861226 8.427613,5.6391798 8.391701,5.6060211 8.2279275,5.536684 8.0636692,5.4851121 7.1494643,5.1980869 6.4353768,4.4934736 6.0654837,3.5134383 5.8681489,2.9905975 5.8609653,2.1293412 6.0491473,1.5548741 6.4469268,0.34056314 7.5396714,-0.51355356 8.81462,-0.60669176 c 1.468308,-0.1072625 2.862838,0.9025312 3.238578,2.34509336 0.104498,0.4011915 0.105909,1.1551251 0.0029,1.5422571 -0.181546,0.6821888 -0.699076,1.4207452 -1.275456,1.8201757 -0.120525,0.083521 -0.219139,0.1868944 -0.219139,0.229708 0,0.1198353 4.413263,11.6362486 4.459187,11.6362486 0.02222,0 0.05372,-0.04276 0.06997,-0.09502 0.09809,-0.315407 2.579889,-12.4656523 2.554589,-12.5065881 -0.01704,-0.027582 -0.15786,-0.1102244 -0.312925,-0.183649 -1.161149,-0.5498538 -1.902751,-1.9233797 -1.725716,-3.19621006 0.186659,-1.3420379 1.16255,-2.39478064 2.475484,-2.67043524 0.479268,-0.1006215 0.769639,-0.1006215 1.248906,0 2.188413,0.4594633 3.204942,2.958872 1.954179,4.8048748 -0.302846,0.4469738 -0.763279,0.8528753 -1.20441,1.0617705 -0.155065,0.073433 -0.295882,0.1560715 -0.312925,0.183649 -0.0253,0.040934 2.456503,12.1911811 2.554589,12.5065881 0.01626,0.05226 0.04774,0.09502 0.06997,0.09502 0.04592,0 4.459184,-11.5164133 4.459184,-11.6362486 0,-0.042819 -0.09861,-0.1461818 -0.219141,-0.229708 -0.57638,-0.3994305 -1.093909,-1.1379869 -1.275456,-1.8201757 -0.103028,-0.387132 -0.101616,-1.1410656 0.0029,-1.5422571 0.37574,-1.44256216 1.770269,-2.45235816 3.238578,-2.34509336 1.274949,0.093136 2.367693,0.9472549 2.765472,2.16156586 0.188183,0.5744671 0.181,1.4357234 -0.01634,1.9585642 -0.369895,0.9800353 -1.083982,1.6846486 -1.998187,1.9716738 -0.164258,0.051566 -0.328033,0.120902 -0.363943,0.1540677 -0.05083,0.046938 -0.03633,1.3941072 0.06543,6.0806642 0.07189,3.311199 0.144623,6.034261 0.161612,6.051249 0.01698,0.01698 0.06413,-0.0043 0.104775,-0.04733 0.06883,-0.07287 5.78862,-8.8288313 6.0176,-9.2118606 l 0.104073,-0.1740991 -0.27709,-0.3329592 c -0.323283,-0.3884625 -0.56696,-0.8469424 -0.683951,-1.2868587 -0.09998,-0.3759521 -0.110861,-1.1359043 -0.0216,-1.5084827 0.177673,-0.741583 0.754677,-1.54648 1.376179,-1.9197156 1.283083,-0.7705396 2.753107,-0.6184816 3.821882,0.3953302 1.27665,1.2109974 1.296248,3.2231755 0.04342,4.4578768 -0.498834,0.4916155 -1.360561,0.8959538 -1.909455,0.8959538 -0.09459,0 -0.200003,0.033749 -0.234237,0.074995 -0.07458,0.089862 -2.581526,12.6015231 -2.634276,13.1471201 -0.06925,0.716222 -0.25945,1.251846 -0.643403,1.81187 -0.08942,0.130439 -0.521762,0.609061 -0.960743,1.063605 -0.529475,0.54825 -0.886811,0.971073 -1.061551,1.256096 -0.144875,0.23631 -0.448417,0.707066 -0.674537,1.046126 -0.4802,0.720044 -0.481039,0.725432 -0.276094,1.772739 l 0.127511,0.651603 0.375268,0.407252 c 0.61868,0.671409 0.900121,1.377177 0.930742,2.334013 0.01088,0.340826 0.03855,0.470013 0.125792,0.588023 0.313222,0.423656 0.559675,1.122108 0.55847,1.582721 -0.0015,0.552072 -0.265675,1.167012 -0.710653,1.653891 -0.34914,0.382013 -0.479271,0.449074 -1.522583,0.784629 -3.503119,1.126694 -7.087048,1.751532 -10.933938,1.90627 -1.48215,0.05962 -1.716237,0.05938 -3.285167,-0.0034 z m 4.506924,-0.998121 c 3.679239,-0.258087 6.899864,-0.898479 10.357178,-2.059431 0.964879,-0.324003 1.151254,-0.426394 1.283538,-0.705164 0.174952,-0.368684 0.08649,-0.757055 -0.233822,-1.026583 -0.309158,-0.26014 -0.491501,-0.246822 -1.591599,0.116246 -3.663649,1.209123 -6.891339,1.818015 -10.684099,2.015515 C 16.911147,36.651503 12.900477,36.264763 9.285424,35.36733 8.2271326,35.10461 7.4289993,34.872046 6.1028734,34.439983 4.986847,34.076371 4.8412587,34.065642 4.5337979,34.324355 4.2099475,34.596857 4.1207973,34.98362 4.2964933,35.35387 c 0.1322831,0.278769 0.318658,0.38116 1.2835382,0.705163 3.4002825,1.141802 6.6745745,1.798774 10.2485765,2.056333 1.336128,0.09628 4.295588,0.09791 5.647229,0.0031 z m -0.352025,-3.777101 c 3.369982,-0.216725 6.420608,-0.764118 9.555923,-1.71468 0.90673,-0.274902 1.162424,-0.411161 1.29472,-0.689955 0.177206,-0.373433 0.08956,-0.759762 -0.234172,-1.032162 -0.294436,-0.247752 -0.520798,-0.238205 -1.49495,0.06305 -3.284508,1.015754 -6.395603,1.542306 -10.034244,1.698294 -4.308645,0.18471 -8.935187,-0.413499 -12.9619253,-1.675971 -1.1589139,-0.363345 -1.4462111,-0.339328 -1.7783338,0.148661 -0.2216265,0.325637 -0.1204277,0.859476 0.2086117,1.100463 0.077401,0.05669 0.4913528,0.212038 0.9198834,0.345214 3.015855,0.937253 6.286524,1.537147 9.555085,1.75256 1.00127,0.06599 3.97158,0.06869 4.969402,0.0045 z m 9.365687,-5.4586 c 0.567063,-0.333119 0.585264,-1.051891 0.03693,-1.458179 l -0.153309,-0.113591 -11.666596,0 -11.6665967,0 -0.1533075,0.113591 c -0.2467869,0.182857 -0.3976659,0.446753 -0.3975722,0.695365 1.62e-4,0.426646 0.2778341,0.76906 0.6887267,0.849306 0.1139266,0.02225 5.3629547,0.03699 11.6645027,0.03275 11.453183,-0.0078 11.457428,-0.0078 11.647225,-0.119242 z M 6.6629837,25.848754 c 4.1300143,-1.296348 7.8526793,-1.876319 12.0435393,-1.876319 4.19577,0 7.919926,0.58085 12.054663,1.880147 1.098404,0.345162 1.282157,0.351633 1.595425,0.05618 0.379078,-0.357517 0.378917,-0.89701 -3.81e-4,-1.230027 -0.274957,-0.241426 -2.193413,-0.846928 -4.201459,-1.326063 -7.178896,-1.712943 -15.058435,-1.399768 -22.0187631,0.875141 -0.7872382,0.257301 -0.952039,0.330596 -1.1196895,0.497978 -0.5171451,0.516323 -0.1607665,1.372055 0.5878092,1.41144 0.065855,0.0035 0.5423335,-0.126352 1.0588561,-0.28848 z"
         id="path3026"
         inkscape:connector-curvature="0" />
      <path
         style="fill:#4f4f4f;stroke-width:0.08145042"
         d="M 15.882909,39.038526 C 12.463635,38.792314 9.169796,38.154981 6.0545573,37.136814 5.1653058,36.846177 4.7378963,36.601674 4.2908844,36.12789 3.4415055,35.227643 3.3492963,34.196199 4.0280825,33.188227 4.1377168,33.025419 4.2615957,32.739645 4.3179493,32.519523 4.5431693,31.639794 4.967934,30.90075 5.5979193,30.292518 L 5.9967818,29.907429 6.1340607,29.206511 C 6.3444773,28.132164 6.3541623,28.183025 5.7694815,27.29188 5.4932288,26.870828 5.1816804,26.388121 5.0771518,26.219197 4.9726197,26.050274 4.4957961,25.505089 4.0175344,25.007676 2.8928561,23.837961 2.647867,23.396656 2.5282006,22.324899 2.4718216,21.819962 0.00410106,9.3663792 -0.07890334,9.1679094 -0.11708324,9.0766246 -0.19325804,9.0444239 -0.44364444,9.0137469 -1.4867507,8.8859459 -2.4299921,8.2152954 -2.8706025,7.2881613 -3.1288748,6.7447056 -3.1970527,6.385445 -3.1634022,5.7452807 -3.1280222,5.0722284 -2.9554581,4.5900492 -2.5631545,4.0680599 -1.2698157,2.3471786 1.3469929,2.4444403 2.5184636,4.2569338 2.8149922,4.7157203 2.9601211,5.17103 2.9955787,5.7537775 3.0461382,6.5847987 2.7688754,7.3923914 2.2255192,7.996736 2.062816,8.1777009 1.9790989,8.3159435 1.9951171,8.377198 c 0.037729,0.1442798 6.1240264,9.458392 6.1805756,9.458392 0.026842,0 0.059734,-0.05498 0.073097,-0.122175 C 8.2893301,17.509501 8.512655,5.6855464 8.477061,5.6279549 8.458839,5.5984753 8.2779467,5.5239319 8.0750735,5.4623141 6.8360138,5.0859616 5.938459,3.8674486 5.9324162,2.5534614 5.9298662,1.997463 6.0136122,1.6259698 6.2527216,1.1327138 7.0004225,-0.40970526 8.938862,-1.0346173 10.480035,-0.23008356 c 0.463058,0.2417288 1.097837,0.8916568 1.321526,1.35306606 0.664084,1.3698248 0.274548,2.9923511 -0.93108,3.8782127 -0.18488,0.1358443 -0.345686,0.2562592 -0.357348,0.2675894 -0.04572,0.044428 4.467919,11.7542854 4.523707,11.7359734 0.05491,-0.01803 2.633419,-12.3058161 2.636546,-12.5643591 0.0011,-0.093228 -0.07738,-0.1573662 -0.36509,-0.2982572 -0.500207,-0.2449452 -1.130975,-0.8693169 -1.361537,-1.347729 -0.875874,-1.81743026 0.06586,-3.9265948 1.975255,-4.4239314 0.408448,-0.1063832 1.160581,-0.1063832 1.569028,0 1.909403,0.4973366 2.851131,2.60650114 1.975256,4.4239314 -0.230562,0.4784121 -0.861329,1.1027838 -1.361537,1.347729 -0.287716,0.140891 -0.366218,0.2050229 -0.365091,0.2982572 0.0031,0.258543 2.581639,12.5463351 2.636548,12.5643591 0.05579,0.01832 4.56943,-11.691554 4.523707,-11.7359734 -0.01166,-0.011338 -0.172468,-0.1317451 -0.357348,-0.2675894 -1.205629,-0.8858616 -1.595166,-2.5083879 -0.931081,-3.8782127 0.12275,-0.25319666 0.302149,-0.49000486 0.586296,-0.77390986 0.658435,-0.6578752 1.29314,-0.9212775 2.219946,-0.9212775 1.180498,0 2.233419,0.6545408 2.742597,1.70491866 0.239112,0.493256 0.322865,0.8647492 0.320307,1.4207476 -0.006,1.3139872 -0.903598,2.5325002 -2.142657,2.9088527 -0.202874,0.06162 -0.383768,0.1361589 -0.40199,0.1656408 -0.0356,0.057594 0.187737,11.8815461 0.228271,12.0854601 0.01335,0.0672 0.04624,0.122175 0.0731,0.122175 0.05655,0 6.142846,-9.3141122 6.180577,-9.458392 0.01601,-0.06125 -0.0677,-0.1994971 -0.230403,-0.380462 C 34.644183,7.3923914 34.366918,6.5847987 34.417481,5.7537775 34.452941,5.17103 34.598066,4.7157203 34.894596,4.2569338 35.661271,3.070736 37.101666,2.554874 38.454137,2.9821192 c 0.863999,0.2729369 1.629188,0.9972499 1.949461,1.8453202 0.176112,0.4663392 0.238227,1.2810147 0.134153,1.7594963 -0.1082,0.4974268 -0.407036,1.0585992 -0.770842,1.4475082 -0.521583,0.5575754 -1.16645,0.888179 -1.910206,0.979303 -0.250391,0.030683 -0.326561,0.06287 -0.36474,0.1541625 -0.08013,0.1915881 -2.542018,12.6210616 -2.604102,13.1474536 -0.125253,1.062004 -0.381665,1.5436 -1.358793,2.552114 -0.876435,0.904586 -1.113268,1.187534 -1.38643,1.65639 -0.113025,0.193996 -0.384564,0.616152 -0.603418,0.938124 -0.469396,0.69056 -0.470226,0.696244 -0.256004,1.754409 l 0.141915,0.701002 0.360363,0.380458 c 0.607678,0.641563 0.930515,1.43876 0.930515,2.297764 0,0.358231 0.01928,0.437445 0.159763,0.656491 0.08787,0.137009 0.228373,0.395717 0.312227,0.574908 0.138098,0.295105 0.152463,0.38208 0.152463,0.923105 0,0.540242 -0.01449,0.628226 -0.151575,0.921004 -0.205109,0.438028 -0.540436,0.860635 -0.840701,1.059523 -0.391017,0.258999 -2.459703,0.899524 -4.274851,1.323616 -2.198539,0.513669 -4.247182,0.818386 -6.624635,0.985355 -1.375073,0.09657 -4.217156,0.09601 -5.565778,-0.0011 z m 5.620078,-0.897615 c 3.070337,-0.216551 6.038407,-0.749438 8.878096,-1.593972 1.501765,-0.446632 2.326758,-0.752642 2.562363,-0.950444 0.603929,-0.507029 0.211658,-1.470821 -0.598637,-1.470821 -0.121365,0 -0.526431,0.109056 -0.908477,0.244581 -2.500858,0.887163 -5.741553,1.60301 -8.575838,1.894345 -2.062413,0.211995 -4.847438,0.272142 -6.651784,0.143656 C 12.534157,36.146595 9.127452,35.468738 5.9731067,34.371602 5.5848606,34.236563 5.1747872,34.125986 5.0618335,34.125876 4.2706872,34.12512 3.884077,35.042379 4.4467395,35.585265 c 0.1975627,0.190619 1.1822155,0.552394 2.748123,1.009697 3.2591365,0.951788 6.6304435,1.489747 10.1813035,1.624627 0.760608,0.02889 3.28367,-0.01922 4.126821,-0.07867 z m -1.248906,-3.745134 c 3.66793,-0.147541 7.252565,-0.753913 10.525622,-1.780498 0.702992,-0.220493 0.894189,-0.302762 1.046329,-0.450222 0.556341,-0.539227 0.176315,-1.460301 -0.602506,-1.460301 -0.110004,0 -0.548067,0.108073 -0.973483,0.240152 -2.55712,0.793937 -5.084515,1.292225 -8.068303,1.590702 -0.755308,0.07555 -1.468256,0.09506 -3.475217,0.09506 -2.006961,0 -2.719911,-0.01951 -3.475218,-0.09506 C 12.25221,32.237601 9.839475,31.762942 7.1753167,30.950747 6.314056,30.688184 6.1007689,30.661303 5.817579,30.779627 c -0.3656644,0.152784 -0.580002,0.618982 -0.4634433,1.008017 0.1181138,0.394232 0.3257953,0.528599 1.2792065,0.827635 3.1835788,0.998521 6.9176668,1.64059 10.3355708,1.77718 1.56893,0.0627 1.803017,0.06294 3.285168,0.0034 z m 10.302307,-5.534748 c 0.26076,-0.17868 0.37979,-0.396092 0.38345,-0.700377 0.0037,-0.306696 -0.11768,-0.55443 -0.354309,-0.723206 l -0.177295,-0.126457 -11.701711,0 -11.701711,0 -0.1772949,0.126457 c -0.5323382,0.379693 -0.4654863,1.181916 0.1229949,1.475941 0.2153766,0.107609 0.3146502,0.108408 11.814294,0.09471 L 30.3619,28.994297 30.556388,28.86103 z M 6.6551186,25.875596 c 4.4444554,-1.420375 9.0578794,-2.052285 13.5582374,-1.857097 3.814419,0.165437 7.006644,0.728477 10.56621,1.863654 0.96192,0.306766 1.251522,0.32611 1.536917,0.102658 0.461304,-0.36118 0.449783,-1.071402 -0.02262,-1.394158 -0.177003,-0.120933 -1.424369,-0.53678 -2.58523,-0.861865 -7.092762,-1.986238 -14.911468,-1.986238 -22.00423,0 -1.1608611,0.325085 -2.4082254,0.740932 -2.58523,0.861865 -0.6712775,0.458636 -0.3366268,1.547029 0.4770851,1.551633 0.1212526,6.93e-4 0.5977372,-0.119325 1.0588561,-0.26669 z"
         id="path3024"
         inkscape:connector-curvature="0" />
      <path
         style="fill:#2f2f2f;stroke-width:0.08145042"
         d="M 16.751713,39.060293 C 14.362371,38.954049 11.742686,38.589803 9.357275,38.032172 7.6061254,37.62281 5.6174871,37.015629 5.0662497,36.722012 4.6053055,36.476491 4.0387822,35.894741 3.814814,35.436942 3.6513644,35.102848 3.6381947,35.035441 3.6381947,34.532927 c 0,-0.476805 0.01791,-0.581239 0.1469731,-0.856651 0.080837,-0.172506 0.2200854,-0.416857 0.3094462,-0.543003 0.09449,-0.13339 0.1976333,-0.383762 0.2465047,-0.598388 0.1867405,-0.820105 0.5808732,-1.508829 1.280375,-2.23738 l 0.4170812,-0.434403 0.1198157,-0.613046 c 0.065901,-0.337175 0.1244724,-0.743878 0.130167,-0.903784 0.00995,-0.278138 -0.0074,-0.317456 -0.3997892,-0.907361 C 5.469563,26.808658 4.9102453,25.92615 4.9302666,25.926559 c 0.00613,1.09e-4 0.1313436,0.06121 0.2782647,0.135752 0.1469199,0.07453 0.3241073,0.135522 0.3937463,0.135522 0.069638,0 0.4992225,-0.120079 0.9546272,-0.266842 4.0291122,-1.298462 7.8982022,-1.905169 12.1496182,-1.905169 4.207625,0 8.153948,0.613566 12.054663,1.874232 0.956443,0.309112 1.066149,0.326572 1.346678,0.214326 0.63394,-0.253653 0.776598,-1.011103 0.275666,-1.463665 -0.166676,-0.150582 -0.382872,-0.242094 -1.144691,-0.484529 -3.734651,-1.188484 -7.245244,-1.795602 -11.1495,-1.928177 C 15.3239,22.076191 10.750227,22.70995 6.1742075,24.166186 5.3972941,24.413424 5.197996,24.498504 5.0208433,24.65855 4.6900349,24.957416 4.6341707,25.3018 4.8460208,25.736282 4.9016018,25.850266 4.7752838,25.752432 4.4253553,25.410479 3.1350871,24.149605 2.7436466,23.54397 2.5976534,22.58267 2.4170229,21.393307 -0.04821124,9.1341653 -0.12149014,9.0608864 -0.16341864,9.0189463 -0.29983564,8.9843182 -0.42462964,8.9839133 -0.54942254,8.9835338 -0.85131141,8.913639 -1.0954907,8.8286424 -3.2367563,8.0832668 -3.8684598,5.3999732 -2.2805361,3.7949159 -1.8247589,3.3342205 -1.4316316,3.1012754 -0.86561616,2.956512 0.21559946,2.6799839 1.3075807,2.980322 2.0906376,3.7696084 2.6918202,4.3755693 2.9733962,5.0582546 2.9757529,5.9155829 2.9779529,6.7057343 2.7108905,7.4150992 2.1981269,7.9813113 2.0494125,8.1455268 1.9277365,8.3010591 1.9277365,8.326937 c 0,0.045781 6.0994616,9.430191 6.1960881,9.533084 0.030567,0.03254 0.068099,0.03193 0.101686,-0.0016 C 8.2798071,17.804105 8.564038,5.7659603 8.514097,5.6358141 8.499912,5.5988606 8.350008,5.5287136 8.180965,5.4799312 6.8818263,5.1049949 5.9497869,3.8693969 5.9467556,2.5180582 5.9457456,2.0815491 6.108877,1.4178787 6.3101871,1.039218 6.5410809,0.60491414 7.2053863,-0.03299636 7.6433867,-0.24100996 9.358304,-1.0554497 11.311002,-0.25756596 11.925888,1.5088302 c 0.272576,0.7830384 0.202022,1.7200877 -0.184053,2.4444377 -0.203708,0.3821951 -0.590238,0.8208943 -0.96687,1.097368 -0.147283,0.1081187 -0.267788,0.2301476 -0.267788,0.2711806 0,0.099384 4.395207,11.5979865 4.467612,11.6880315 0.03103,0.0386 0.07716,0.04945 0.102496,0.02411 0.06292,-0.06292 2.653996,-12.5963402 2.621329,-12.6797333 -0.01434,-0.036583 -0.166052,-0.1328002 -0.337153,-0.2138054 -1.23461,-0.5845003 -1.953799,-2.0256741 -1.674289,-3.35508486 0.34233,-1.628199 1.840575,-2.68926024 3.467329,-2.45557234 1.270644,0.1825302 2.300178,1.16569984 2.571374,2.45557234 0.27951,1.32941076 -0.439678,2.77058456 -1.674288,3.35508606 -0.171102,0.080999 -0.322821,0.1772174 -0.337154,0.2138054 -0.03267,0.083394 2.558416,12.6168191 2.62133,12.6797331 0.02534,0.02534 0.07145,0.01449 0.102496,-0.02411 0.0724,-0.09005 4.467611,-11.5886545 4.467611,-11.6880323 0,-0.041038 -0.120504,-0.1630643 -0.267787,-0.2711806 -0.592661,-0.4350536 -1.054496,-1.0926812 -1.223776,-1.7425907 -0.04694,-0.1802001 -0.08283,-0.5448012 -0.08242,-0.8372319 0.0031,-2.26586306 2.353116,-3.7018572 4.437772,-2.71182336 0.438,0.2080125 1.102305,0.8459242 1.333199,1.28022796 0.20131,0.3786607 0.36441,1.0423312 0.363431,1.4788402 -0.003,1.3513388 -0.93507,2.5869356 -2.234208,2.9618742 -0.169044,0.048789 -0.318953,0.118934 -0.333132,0.1558818 -0.04995,0.1301462 0.23429,12.1682907 0.288586,12.2225867 0.0336,0.0336 0.07113,0.0342 0.101686,0.0016 0.09663,-0.102889 6.196088,-9.4873095 6.196088,-9.5330838 0,-0.025881 -0.121676,-0.1814103 -0.270391,-0.3456269 -0.512764,-0.5662109 -0.779798,-1.275577 -0.777625,-2.0657284 0.0023,-0.8573283 0.283933,-1.5400124 0.885115,-2.1459733 0.969121,-0.9768247 2.504432,-1.1985507 3.68442,-0.5320943 0.721503,0.4075062 1.333506,1.2409281 1.504863,2.049318 0.25302,1.193637 -0.225135,2.4353033 -1.207864,3.1365648 -0.396081,0.2826381 -1.120033,0.559408 -1.466152,0.5605152 -0.124794,3.806e-4 -0.261175,0.03501 -0.303069,0.076904 -0.07922,0.079218 -2.578577,12.5094937 -2.697856,13.4174487 -0.126324,0.961602 -0.405773,1.437792 -1.525614,2.599702 -0.574186,0.595756 -0.928643,1.014323 -1.10928,1.309918 -0.146005,0.238921 -0.45047,0.711903 -0.676592,1.051073 -0.400614,0.600899 -0.410821,0.624505 -0.399155,0.923105 0.0066,0.168539 0.06948,0.588457 0.139771,0.933152 l 0.127799,0.626719 0.352191,0.357432 c 0.605468,0.614476 0.91661,1.368498 0.943514,2.286524 0.01181,0.403242 0.03481,0.507982 0.149615,0.681459 0.402711,0.608536 0.568783,1.184365 0.508442,1.762932 -0.06693,0.641721 -0.566611,1.443345 -1.091394,1.750888 -0.408247,0.239249 -2.519201,0.878024 -4.200277,1.271004 -3.674502,0.858979 -7.428869,1.200445 -11.304057,1.028122 z m 4.669824,-0.888174 c 3.077295,-0.215868 5.779478,-0.685638 8.606595,-1.496242 1.331312,-0.38172 2.686966,-0.85332 2.883206,-1.003 0.614402,-0.468628 0.358835,-1.430356 -0.418373,-1.574384 -0.157023,-0.0291 -0.410154,0.03386 -1.276057,0.317366 -1.96248,0.642545 -3.173955,0.962431 -4.962647,1.310369 C 20.661704,36.814101 14.959921,36.685276 9.394025,35.345292 8.36512,35.097584 7.5424134,34.858611 6.2717584,34.438362 5.1276592,34.05997 4.8733947,34.030074 4.5626145,34.237407 c -0.4980239,0.332252 -0.5439219,1.039455 -0.092129,1.41961 0.1095881,0.09221 0.5431538,0.265653 1.2427145,0.497133 3.405616,1.126899 6.588501,1.757475 10.169712,2.014772 1.336038,0.09599 4.192327,0.09764 5.538629,0.0032 z m -0.406326,-3.775406 c 2.84099,-0.179265 5.432923,-0.585323 8.008365,-1.254606 1.349455,-0.350685 2.547162,-0.737376 2.740393,-0.88476 0.618508,-0.471759 0.371085,-1.435024 -0.40548,-1.578613 -0.144095,-0.02664 -0.409524,0.03141 -1.097661,0.240066 C 22.67005,33.220486 14.829487,33.231652 7.2491637,30.95158 6.2139054,30.640184 6.185076,30.634827 5.9540642,30.710932 c -0.4592944,0.15131 -0.6964115,0.499436 -0.64583,0.948188 0.057235,0.507775 0.2578535,0.653627 1.370777,0.996561 3.0494428,0.93965 6.2649628,1.522229 9.5839988,1.736404 1.003324,0.06474 3.757043,0.06743 4.752201,0.0046 z m 9.441908,-5.450953 c 0.09963,-0.04163 0.251568,-0.168013 0.337634,-0.28085 0.12978,-0.170153 0.156483,-0.257523 0.156483,-0.512018 0,-0.36316 -0.153987,-0.632793 -0.453505,-0.794091 -0.183913,-0.09904 -0.53931,-0.102114 -11.818097,-0.102114 l -11.6284831,0 -0.1967517,0.134817 c -0.5617598,0.384929 -0.5548747,1.120518 0.014103,1.507765 l 0.179514,0.122176 11.6139728,0 c 9.807773,0 11.642147,-0.01178 11.795123,-0.07569 z"
         id="path3022"
         inkscape:connector-curvature="0" />
      <path
         style="fill:#000000;stroke-width:0.08145042"
         d="M 16.045809,38.983938 C 13.078106,38.779251 10.334265,38.306259 7.5478142,37.519031 6.1050995,37.111435 5.2625548,36.812364 4.9167763,36.585118 4.4940561,36.307305 4.067291,35.838172 3.8660005,35.430023 3.7056957,35.104978 3.6924958,35.036681 3.6924958,34.532309 c 0,-0.606068 0.066896,-0.825754 0.3942566,-1.294823 0.1174114,-0.168235 0.2242667,-0.42385 0.2950893,-0.705904 0.2144776,-0.854174 0.5857302,-1.502079 1.2488684,-2.179507 0.2337365,-0.238772 0.4357362,-0.470906 0.4488886,-0.515852 0.062037,-0.212001 0.2464597,-1.273099 0.2464597,-1.41804 0,-0.09507 0.0227,-0.149321 0.054297,-0.129788 0.029861,0.01845 0.054296,0.07911 0.054296,0.134789 0,0.145304 0.2505542,0.422469 0.4943341,0.546836 0.2062689,0.105226 0.3706393,0.106522 11.8442065,0.09265 l 11.635034,-0.01407 0.174316,-0.124335 c 0.301238,-0.214867 0.419363,-0.431887 0.421278,-0.773976 0.0022,-0.384717 -0.190749,-0.693468 -0.528394,-0.845722 -0.21956,-0.09901 -0.585477,-0.102183 -11.794304,-0.102183 l -11.5677135,0 -0.2527119,0.148558 c -0.2526897,0.148547 -0.4758747,0.482465 -0.4837848,0.723815 -0.00289,0.08843 -0.011651,0.08452 -0.055361,-0.02472 -0.028554,-0.07136 -0.2058234,-0.352371 -0.3939349,-0.624454 -0.3354085,-0.485129 -0.7961745,-1.241528 -0.7961745,-1.307008 0,-0.01823 0.051462,-0.0056 0.1143663,0.02805 0.2200715,0.117779 0.5631241,0.06776 1.4331965,-0.208959 3.1951578,-1.0162 6.0530988,-1.561318 9.4753988,-1.807321 1.084094,-0.07792 4.020133,-0.07792 5.104226,0 3.420058,0.245841 6.27286,0.78974 9.471966,1.80587 0.766266,0.243389 0.904465,0.27173 1.206738,0.247466 l 0.341367,-0.0274 -0.143097,0.251559 c -0.0787,0.138356 -0.346844,0.556997 -0.595869,0.930311 -0.431607,0.647019 -0.452716,0.692716 -0.451494,0.977404 6.91e-4,0.16426 0.06073,0.599571 0.133373,0.96736 l 0.132092,0.668708 0.30484,0.300008 c 0.659164,0.648717 1.000467,1.466305 1.002341,2.4011 7.56e-4,0.375965 0.01403,0.420212 0.2175,0.724913 0.235919,0.353291 0.434931,0.915683 0.434863,1.228889 l -4.3e-5,0.197906 -0.114493,-0.231306 c -0.158099,-0.319398 -0.380155,-0.464375 -0.750674,-0.490101 -0.251393,-0.01746 -0.42545,0.0213 -1.035256,0.230471 -4.057406,1.391783 -8.309861,2.091882 -12.706266,2.091882 -4.396405,0 -8.648859,-0.700099 -12.7062655,-2.091882 C 5.1244996,34.0131 4.799815,34.000355 4.4681087,34.253363 c -0.2064609,0.157476 -0.3683671,0.478645 -0.3683671,0.730723 0,0.221805 0.2197881,0.617679 0.4147997,0.747124 0.093749,0.06223 0.5702303,0.250044 1.0588549,0.417371 3.2241018,1.10408 6.5965948,1.781485 10.2552068,2.059879 0.492775,0.0375 1.787836,0.06818 2.877914,0.06818 2.021159,0 3.057126,-0.05359 4.696975,-0.242947 2.958101,-0.34159 5.838469,-0.985932 8.468414,-1.894398 0.907144,-0.313355 0.978185,-0.345702 1.187188,-0.540555 l 0.153054,-0.14269 -0.05877,0.154822 c -0.1043,0.274757 -0.442134,0.736727 -0.701032,0.958637 -0.205029,0.175735 -0.40456,0.266648 -1.066708,0.486025 -2.576351,0.853572 -5.535954,1.48467 -8.416544,1.794723 -1.982176,0.213352 -4.94021,0.270476 -6.923286,0.1337 z m 4.615524,-4.533286 c 3.5616,-0.183054 7.001706,-0.787091 10.213473,-1.793349 0.804102,-0.251929 1.009814,-0.374723 1.179504,-0.704079 0.312458,-0.606457 -0.126872,-1.302768 -0.821968,-1.302768 -0.137135,0 -0.588879,0.10621 -1.0235,0.240624 -2.574121,0.796123 -5.282869,1.321501 -8.190003,1.5885 -1.500203,0.137783 -5.124429,0.137783 -6.624634,0 -2.915682,-0.267784 -5.642532,-0.797493 -8.1993425,-1.592779 -0.634075,-0.197228 -0.8460639,-0.240903 -1.0889381,-0.224354 -0.3706394,0.02526 -0.6533249,0.219205 -0.7796461,0.534914 -0.1082923,0.27064 -0.1087319,0.434394 -0.00185,0.690171 0.1607411,0.384802 0.3141816,0.485362 1.1357563,0.744335 4.4904914,1.415475 9.5186934,2.05945 14.2011924,1.818785 z M 4.2017353,25.121478 C 3.0296908,23.941829 2.6894137,23.363492 2.6028783,22.404048 2.5673594,22.010269 0.05446506,9.3025203 -0.02573714,9.1111173 -0.06517814,9.0169864 -0.13864564,8.9854972 -0.39047824,8.9547982 -0.90890991,8.8916046 -1.3559439,8.7262114 -1.7862516,8.4384051 -3.3713129,7.3782509 -3.5844877,5.1505679 -2.2307367,3.7935334 -1.2816955,2.842192 0.09745916,2.6290646 1.3294613,3.2433626 1.7365105,3.4463237 2.2720699,3.9468016 2.4981275,4.3354781 3.1956763,5.5348131 3.0685198,6.9434901 2.172021,7.9482163 2.0077998,8.1322633 1.8734365,8.3017672 1.8734365,8.3248938 c 0,0.073282 6.1854533,9.5353922 6.2696598,9.5909252 0.052422,0.03458 0.097764,0.03458 0.1300339,0 C 8.323528,17.861824 8.576897,6.6152559 8.543397,5.9189821 L 8.525221,5.5411846 8.1179692,5.4029755 C 7.5610429,5.2139709 7.2261458,5.0076939 6.8419121,4.6170043 6.2940983,4.0599843 6.0002585,3.3229042 6.0002585,2.5057654 c 0,-0.844979 0.2799296,-1.51268726 0.8943037,-2.13314956 0.5948378,-0.6007338 1.2960773,-0.8905207 2.1549218,-0.8905207 1.868968,0 3.336867,1.77866606 2.956079,3.58190846 -0.171146,0.8104713 -0.662208,1.5609039 -1.285844,1.9650063 -0.146761,0.095103 -0.266751,0.2115516 -0.266644,0.2587848 1.08e-4,0.047239 1.009248,2.7247698 2.242539,5.9500793 2.214271,5.790772 2.350217,6.112767 2.448691,5.799875 0.09428,-0.299553 2.621726,-12.6507616 2.600216,-12.706812 -0.01418,-0.036965 -0.151738,-0.1254837 -0.305673,-0.1967043 -1.025597,-0.474512 -1.680864,-1.4411149 -1.754917,-2.5887266 -0.05664,-0.87776626 0.260431,-1.69781946 0.902788,-2.33491206 1.175168,-1.16553784 3.064441,-1.16553784 4.239609,0 0.969971,0.962019 1.185803,2.37402226 0.552605,3.61519446 -0.257306,0.5043618 -0.840097,1.0472043 -1.404733,1.3084442 -0.153936,0.071223 -0.291488,0.159738 -0.305673,0.1967043 -0.02151,0.056055 2.505938,12.407259 2.600215,12.706812 0.09847,0.312892 0.234422,-0.0091 2.448692,-5.799875 1.23329,-3.2253095 2.242433,-5.9028438 2.242539,-5.9500793 1.08e-4,-0.047227 -0.119884,-0.1636867 -0.266645,-0.2587848 -0.623634,-0.4041024 -1.114698,-1.154535 -1.285842,-1.9650063 -0.26333,-1.2470103 0.389575,-2.61494116 1.534616,-3.21524556 1.228615,-0.6441189 2.621958,-0.4400263 3.576383,0.5238578 0.614374,0.6204623 0.894305,1.28817056 0.894305,2.13314956 0,0.8171388 -0.293841,1.5542189 -0.841655,2.1112389 -0.384233,0.3906896 -0.719131,0.5969666 -1.276056,0.7859712 l -0.407253,0.1382091 -0.01818,0.3777975 c -0.03349,0.6962738 0.219866,11.9428459 0.270268,11.9968369 0.03228,0.03458 0.07761,0.03458 0.130034,0 0.0842,-0.05553 6.26966,-9.5176474 6.26966,-9.5909252 0,-0.023128 -0.134363,-0.1926305 -0.298585,-0.3766775 -1.092298,-1.2241626 -1.023472,-3.0403236 0.159302,-4.2035486 1.168987,-1.1496677 3.069656,-1.127779 4.243456,0.04887 0.587211,0.5886341 0.892342,1.3152702 0.89065,2.1209794 -0.0032,1.5759271 -1.145004,2.8469618 -2.730908,3.0402854 -0.251835,0.030706 -0.325297,0.062187 -0.364741,0.1563203 -0.0802,0.191403 -2.5931,12.8991509 -2.628617,13.2929309 -0.08689,0.963319 -0.429795,1.543855 -1.612234,2.72945 l -0.481937,0.483223 0,-0.282294 c 0,-0.592819 -0.223333,-0.793011 -1.279532,-1.146949 C 24.586295,21.89196 16.58189,21.548456 9.350563,23.239681 7.734145,23.61772 5.4642965,24.300809 5.1043047,24.517551 4.872918,24.656863 4.7294678,24.927269 4.6974996,25.284385 L 4.669906,25.592687 4.2017411,25.121484 z"
         id="path3020"
         inkscape:connector-curvature="0" />
    </g>
  </g>
</svg>
